<mxfile host="app.diagrams.net" modified="2022-02-07T20:17:42.224Z" agent="5.0 (Macintosh; Intel Mac OS X 10_15_7) AppleWebKit/537.36 (KHTML, like Gecko) Chrome/97.0.4692.99 Safari/537.36" etag="ier84SzxzHIN-pBsfN6l" version="16.5.3" type="github" pages="3">
  <diagram id="pBhCqKIqDnunKgA3vU04" name="Page-1">
    <mxGraphModel dx="2646" dy="1714" grid="1" gridSize="10" guides="1" tooltips="1" connect="1" arrows="1" fold="1" page="1" pageScale="1" pageWidth="850" pageHeight="1100" math="0" shadow="0">
      <root>
        <mxCell id="0" />
        <mxCell id="1" parent="0" />
        <mxCell id="Weqxmp7_vVV9m2XcrIA7-1" value="" style="whiteSpace=wrap;html=1;aspect=fixed;" parent="1" vertex="1">
          <mxGeometry x="-1700" y="-1100" width="2540" height="2540" as="geometry" />
        </mxCell>
        <mxCell id="Weqxmp7_vVV9m2XcrIA7-2" value="" style="rounded=0;whiteSpace=wrap;html=1;fillColor=#0050ef;fontColor=#ffffff;strokeColor=#001DBC;" parent="1" vertex="1">
          <mxGeometry x="-1700" y="-1100" width="2540" height="190" as="geometry" />
        </mxCell>
        <mxCell id="Weqxmp7_vVV9m2XcrIA7-3" value="" style="rounded=0;whiteSpace=wrap;html=1;fillColor=#0050ef;fontColor=#ffffff;strokeColor=#001DBC;" parent="1" vertex="1">
          <mxGeometry x="-1700" y="1250" width="2550" height="190" as="geometry" />
        </mxCell>
        <mxCell id="Weqxmp7_vVV9m2XcrIA7-8" value="&lt;h1&gt;jjjj&lt;/h1&gt;" style="verticalLabelPosition=bottom;verticalAlign=top;html=1;shape=mxgraph.basic.patternFillRect;fillStyle=diag;step=5;fillStrokeWidth=0.2;fillStrokeColor=#dddddd;fillColor=#647687;fontColor=#ffffff;strokeColor=#FFFFFF;" parent="1" vertex="1">
          <mxGeometry x="-1480" y="-810" width="2100" height="1880" as="geometry" />
        </mxCell>
        <mxCell id="Weqxmp7_vVV9m2XcrIA7-9" value="Text" style="text;html=1;resizable=0;autosize=1;align=center;verticalAlign=middle;points=[];fillColor=none;strokeColor=none;rounded=0;" parent="1" vertex="1">
          <mxGeometry x="30" y="320" width="40" height="20" as="geometry" />
        </mxCell>
        <mxCell id="Weqxmp7_vVV9m2XcrIA7-15" value="" style="shape=stencil(lZTdboMwDIWfhtujxE6c5Lrr3qNS6YrGoKLd39svCLWb2Wppd8Hki88hBze8OR93p7Yhd75M43P73u0vx4YfGqJuOLZTd6mrhrcNbw7j1D5N4+uwX55Pu3nnvHoZ3+YTPhbOOwfnZozc51K6FR4XoO8GG/DI8V9AROH7QCmQVQOCTwaQUUQDAjI8lIRCCiBCMDwUQWQNFFtShA8KYIH3BsAI2nQgxGIAHqw9hAwxOuSMqCVFRgkGEBF0h5jBxsVlD4oKkBoNQ1ISJC1Jgg14+KyBhEz3AeG16XoEG9GIEeQ1UCuG6SBrSalcr/JPgBO8/kq5ipT7AGWEpIGEaHSof3AoCigOxUirdxAtqeZXsmH6Gv7bfjt7v0eGW0+ZuvieUYeu75cR9/P9eqbV0jIPefsF);fillColor=none;strokeColor=#FFFFFF;direction=south;" parent="1" vertex="1">
          <mxGeometry x="-1115" y="-265" width="270" height="180" as="geometry" />
        </mxCell>
        <mxCell id="Weqxmp7_vVV9m2XcrIA7-16" value="" style="shape=stencil(lZTbboMwDIafJre/EjvH6657j0qlA42VirLT2y+ISW2gy+Q7Ez47tmP/infX9nBpFOnrNA6vzWd3nFrFT4qoO7fN2E3ZUrxXvDsNY/MyDu/n4/J9OczkbL0NH3OEr8VPQ+vZifT36uB5wfvufIcbUBTgHsZJohsEkvAW5CV8RJDkQwwniU8RPgl4ZlgRH+Al+ViDyBLewQcJn+Al4+AstJHwUdYfzzBWwgeEMr4Hub/5QLBlfENwlQuCRygf7DaCDx2igS4zIlctITqYcoHzkNRSirmnZUqu3qRkwOXS+HrRiddbFuo1pM3Y5TbU3iHlPShvyEn+hnjskKBXD6f/kQq9UcatSzZuunrq+n6R5fv/ax3OR4uG8/4H);fillColor=none;strokeColor=#FFFFFF;" parent="1" vertex="1">
          <mxGeometry x="-1295" y="-605" width="390" height="10" as="geometry" />
        </mxCell>
        <mxCell id="Weqxmp7_vVV9m2XcrIA7-17" value="" style="shape=stencil(lVXLbsMgEPwarivY5bGc0/Q/IsWprbp25Dh9/H2xqNLU227lG8YzzM4ygKHdpT2cG4P2Mk/jc/PWHefW0INB7Ia2mbq5jAztDe1O49Q8TeN1ONbv82FBLqOX8XVZ4b3ynLVg7UJD+1GnbhOPldB3w3+E6DcRCHzcREgQ8yZCBlYUcoLwE+8IkmI6h7WAY7CkEERFiMBKl1goLKYVQhIeCCErJSW5DQky/02IuFbwpJoOwoMvXVIUvPAQSpc0gvAQ9GiQKKm4QiUaJBRiBFZMo1AojY5JIch0ewioxFsqMDilJCcU2IFXuiS2gT1EpSJREN9W+N3yev1yPJySbXmcEchtwXvwyhZIfAQXtuATkBIiiWdISj8lPquJEPi7G/CLUAbfV/6p6/v6Ytz/Xz8RZao+L7T/BA==);fillColor=none;strokeColor=#FFFFFF;" parent="1" vertex="1">
          <mxGeometry x="-1115" y="-590" width="25" height="260" as="geometry" />
        </mxCell>
        <mxCell id="Weqxmp7_vVV9m2XcrIA7-18" value="" style="shape=stencil(lZXbbsIwDIafpre/Ers5+Jpt74FEGdUYRcBOb79UVRlJwVPu3KSfneT3oeHVebc+dg2Z8+U0vHVf/eaya/ipIeoPu+7UX5LV8HPDq+1w6l5Pw8dhM30f1+Ofo/U+fI4evifOwJgRIvMzLVhzXXqZgH1/uAEIFKsAa0A+I2KA0wABSQYEpx+JESgDfERwjwE2CCEDnICjAgTEPILTL922aNsMaA08PwbcQggmRKsALUz+rCTwogCh1IE8nFeA5C+/NOk6eAvXVgGMKFWAR+uqACl1+AcIBF8VIeVmrANkIRzPh7wLRFoIZxGVbI3pAMWlDVjJpVSQnOtg9QKKAsc5EGCV5BNbCmedWg9CkAK4Jvx9YFFxltQ2Iw6BqwCPIFVAKHMp9UJRlJY4+5sBvS2JwOYBIlh71CRb3vc8SJH5prXPQNn2kvE3Wrb9fj9Nptv9chSlpWmM8fMv);fillColor=none;strokeColor=#FFFFFF;" parent="1" vertex="1">
          <mxGeometry x="-1170" y="-340" width="292.5" height="40" as="geometry" />
        </mxCell>
        <mxCell id="Weqxmp7_vVV9m2XcrIA7-19" value="" style="shape=stencil(lVfZctswDPwav2JIguDxnKb/kZk4taeunXGcHn9fuBqqBSmt0jdZxoo4Fgtwxw9vh6fX/S64t9v18nX/4/h8O+z40y6E4/mwvx5v+rTjxx0/vFyu+y/Xy/v5efr9+nS3vD99u3y/f+HnhHPk3B0U3K/pRcoU0p83nyf70/GM7LOnWtbtPUmw9pl8XrdnCmLsi34/rNtH8t7aR3Lg+0LZ+l8KOVm312wUY18DubhuX6gkay/kGeTHtb9nQKZcISB3J1QSULER4N1cxTVEjP0RHhShUqzWPlEELmWqvk9qBCRKxDZHJVEGSY2ULYlypQSKzORthpTUCZK6dk0TiEHNHFXrjzAJINFgHzdIRGJJypjUQ7zsG20/1jRakQriHZpAT4zAHx8odQBHBTE0k7OM87VxahGgKSqxB0SgExphyP9zArshSTgGjlRsF4RAgqSxULBBa2EC0kbfunAGFGIEiMQ2Bg7tzTIg9fLOqQnmMqC0xp2prXkDaRVHqQPgXpDQcjIDsD5qL0bbPRvdKZGidUmUjiBoEXK2DlKhfimArUtJWxzUQYYO3QZ0J2y71McgTWU/mKXtOhQbQ8RTQUYZ25j92l/WJe1yj8g3cMkX8ogaI2CjDgP51COgrGMZApxsMuwvKkoop7UXJbwqpEG5591h2V6odAlqs33ZvvaKhOPNyomORFQAJfIg87qboM2l9qzeKHBRznWTSqiCiIv069rGHNEFNnVzRFpRlre1YSzo7BLgUmVKNkksFIFLuvN2WzzXpjfLgGGOaO+jtV+X5Ghd0lHkEKAMxCgtqjVAtC4Jbp06jDaZyfhRACbrAgCrha7trls8c0v0GsAPkwr1vwLY1iHphQatzm68cfYIffh7XX05nk7Tbfff//vrrb6arsb8+Bs=);fillColor=none;strokeColor=#FFFFFF;" parent="1" vertex="1">
          <mxGeometry x="-715" y="-510" width="197.5" height="141.25" as="geometry" />
        </mxCell>
        <mxCell id="Weqxmp7_vVV9m2XcrIA7-20" value="" style="shape=stencil(lVbLcsIwDPyaXDW2/JLPtP0PZgglUwoM0NffV2mmLY7Kdrg5jteWtLuyu7A4bZaHvmN3Oh/3T/3bsDpvunDXMQ+7TX8czjrqwn0XFuv9sX887l92q+n7sBxXjqPn/eu4w/uE85FSGlHsPqaZGojd18zDBNgOOwyIVDMAZHKuBQjFeh3ATJIbgHfue4+/EZlCi6iVxF8HBE/Cc4BPAFDJ1RZQyJfrgFiIyy11TSYHyZRAmXKi2BJRhDIgojCV0ABypQiqJG7OXBKSAAAmhyjEoKzV8BAKZQEAkzSrmBgAhLy0Yqowhwut/SCUuZuOKFTBCdU4KFAFUhKbAgUQj9JWfbMeu8fqAu+fA+V4Q/zJ7C9Q2NHErwQIEIV18z8cs8lAKfOo6Rk3h0QOqciEFBkWyRyQHHEEOc8z0P4hwGkmnqxdFmRsOMhCDnBgTDOqCvQWu16vCSA6ux43OxO/uiKDepr6iIe3mtU0UwaCMJ4XbSrABEYPur4ifk2BJFIGBHijIEmwbVkPSIHN3XKmnSwBD2iRuA2pOkqIBHvJetgp2F7j81tZB79vpfWw3U5Prcv/87eVTk3vsnD/CQ==);fillColor=none;strokeColor=#FFFFFF;" parent="1" vertex="1">
          <mxGeometry x="-390" y="-533.125" width="68.75" height="94.55357142857167" as="geometry" />
        </mxCell>
        <mxCell id="Weqxmp7_vVV9m2XcrIA7-21" value="" style="shape=stencil(lZPNbsMgEISfhusIWGCXc5q+R6Q4tVXXjhz37+1ri0NjLCNxW+Abdgcxik6P9nJvlNWPeRrfm+/uOreKXpS13dA2UzcvlaKzotNtnJq3afwcrml9v6zkWn2MX+sNP0mnofUqsvo323hNeN8NJZzguQI3GmxqeIaECt5acM08ZGB9Be80Ah3zDoY3vNdwhfsFRFs+QuwxbwLCtkEQcKGB9bkDDuB4LCDKRxIHkoJlk48kEVx4I797pEhFD2FnOga4QgdmsGwFAil8O9mZNrqcg6fzY8lS/Mfu1vV9Su3zeR7TZStFnM5/);fillColor=none;strokeColor=#FFFFFF;" parent="1" vertex="1">
          <mxGeometry x="-335" y="-495" width="15" height="140" as="geometry" />
        </mxCell>
        <mxCell id="Weqxmp7_vVV9m2XcrIA7-22" value="" style="shape=stencil(pZbbTsMwDIafpre/EjtO4msO74HEYBVjQ2Oc3p6MqmxuN6OJuyz1N8e/D0nHV6/Lu5dFR+F1t908LT76+92y4+uOqF8vF9t+11Yd33R89bDZLh63m7f1/fD75W5vuV89b973//A5cEkQyp6i8DXsBITws3E72K/6tWsvEHXsCZWMfUwQOQ9wRWYDUEKpDiCgaAAO4xlPAwGqFlDUfB6gjJINkBTZiYEIkqxIipTOA7GCbQy5QtgBMjQYoLQdcgBBskFXBnnA7EhVIdEJWsBiAGUUB2BGtTFohni1R6CJh1YsDiCEaGOIwS/vzOBqXSjYAUpTMV0SRJM9hqlMwZFJA6L1UOsY1mkggW2L1jg24WmgINqgS0L0qu+g4m+9trlwGSECdVpifqhU3MGhBJ10aYA4bV1l7JjfOZBAzuAoBcl6IB2lPl1NBdnWX2uS6gCSwTbXxO7wm4/jBoSLpmUbVuwA87b+w8N8NP0RQ4yj6kcqRS8PCBORipu3ltXJjeKnbXZlcURy7NvXyQXEEMd+1grc0u4U6txeEf9l3xaHB8FDv1oN74nj79MHRNsaHh988w0=);fillColor=none;strokeColor=#FFFFFF;" parent="1" vertex="1">
          <mxGeometry x="-225" y="-525" width="44.375" height="89.375" as="geometry" />
        </mxCell>
        <mxCell id="Weqxmp7_vVV9m2XcrIA7-23" value="" style="shape=stencil(lZXbbsIwDIafpre/HDvHa8beA4kyqjGKCju9/VJVZaRs3nKXJvnq0++4kdV5vzm1DdP5MvTP7Xu3vewbeWiYu+O+HbpLXjWybmS164f2aehfj9vp+7QZb46rl/5t/MPHxBkiEI0Y0+e0dd14nIBDd9QBA8dVAINjFeAQfRUQ4VxdDIxYF4QJSHU2WJCkihADqrMhEaGOsB5GIVKCD2UxBE6pRgbIFIAnWEVRKYKkBPxs82fAQ2IBBAYpikp2Pr4CAWwUgBBSKSgDq1iIOYmlhehgkgIQ3MJChFeyFOwyrSm7pBQuJzGULiVBUPTnIuICcDpA8L4EAqz9HbAMs4ghN6qSVpE7lxKs4hJnaXDZpvTHe5Z/aOoImZ+KfzqVZq3dRK29Z24pjXyfFS2ZueVvyuAVf+6egLGhlIDv7y91kRffA2bXHQ7TfLo9Xw6kvDUNM1l/AQ==);fillColor=none;strokeColor=#FFFFFF;" parent="1" vertex="1">
          <mxGeometry x="-385" y="-470" width="190" height="219.375" as="geometry" />
        </mxCell>
        <mxCell id="Weqxmp7_vVV9m2XcrIA7-24" value="" style="shape=stencil(lVZdU+MwDPw1edXYlj+kZw7+BzOUa4Zey5TCHf8e5TItrVW2kzcn8UZeaVfWwHdv68fX1ZDC22G/e1n9HZ8O64F/DSmN2/VqPx5sNfD9wHfPu/3q9373vn2an18fp53T6s/uY/rDvxkXKIQJlMLn/KIlKvH/m4d5/2bcnu23r4v269L/Lz5QpqpLAJwoLgMosSwB5EqlLgEUpsiLAM2VIRKXnwHVpbVaZUCEGimVS0AmxYCOdLEIFR6J4yUgkAggLZTzBSBbzAQApY8w1R4cqTgOpndBlW69lqLJERwpe/FRDUB79ZiS04mIM9jvGJwKf909TkiBCqiBuS10GSIFfJNXBQnQadTezUoK+EaniRsFiO1Y0BNAoeqiy1CqxDhCB7ihuisAgd70HDKToAjeOUoNRXAtr5j7G2zbehnB7J0YAFLPoZZjGq4DnJlboIik6ki3DLVn3um81pQK4MDuSMJUEUB790ijhttFlyWNMK129XRtWzNFQLq4i0ErZQUA7tOqcox5HeBamCplQLo6LcWAu1h1hbiJ8H1GSEBiTTudI7RRAPJrrtZWiQZamfjERnj5iOsbYhxA6dTd6VJIQd9Q1+0lUUYAJ78bFrKsczf5mPzQPOmHMezqMyX8OFzZ4ns+fh43m3m8Pv/ez9P2ap7F+f4L);fillColor=none;strokeColor=#FFFFFF;" parent="1" vertex="1">
          <mxGeometry x="-100" y="-552.5" width="200" height="106.875" as="geometry" />
        </mxCell>
        <mxCell id="Weqxmp7_vVV9m2XcrIA7-25" value="" style="shape=stencil(lVbLbgIxDPyavVpJnDjJmbb/gQSUVSmLFvr6+3q1otSBTsUtLDNOxh476Xhx3C4P6y6442kcXtYf/eq07fihC6Hfb9djf9JVx48dLzbDuH4eh7f9av59WE7IafU6vE8RPmeeI+cmUnBfzYenGb7r9wjuKcU74IlKuic634kvFAXhUzZ4PU8FeE8xGjxHckBuILbniYFK+RvPlG38hNOZzurOeMHVyhStXsmUAL5SLAafcf69p9wQKgUGBFVcDaEwCdohUQqWgCX4TMHmtGrVQQ3UMmyPVANJBQSVmCyBKWRIKNzu4AOwkaNofVQ0hIcEadIq5EFabxC0lKBwSqhNpYUq0uCp2DpkjwmRvCWoWRmJzm23CfYSexJvCR5miaW1d6okQMPU7qEloH6I2nF8zw5JyFmCjgAG9hY1c2xFoxkjhXyTVjzEcqBqvSQRasiZXFMH7KXiruYeztI0VGwdMtag7RKtBrU3ypI2JNvRWnAdqpqvIeC7RIeKWPPp5ENzqaZ2alRs75rJN3PpnyOV823wQ9AQSPSVvS8hbo9Kd32lu/aO08XlNbPpd7v5MfT7//b1o5/mlxM/fgM=);fillColor=none;strokeColor=#FFFFFF;" parent="1" vertex="1">
          <mxGeometry x="-1020" y="-90" width="217.5" height="325" as="geometry" />
        </mxCell>
        <mxCell id="Weqxmp7_vVV9m2XcrIA7-26" value="" style="shape=stencil(lZVLcoMwDIZPw1ZjW36u0/QemQlpmKYhQ0gft68o4zYyRJSdMfosS/olV7i5HneXujLq2nfta/3R7PtjhU+VMc35WHdNT6sKtxVuDm1Xv3Tt7bwfvy+7wXJYvbXvwwmfI6dAqQEy6mvcMBGs+dl5Hu1PzZnZR7vGXitwYQ1gAvhVAAbQeg3gFHhcA3gL2q0BQgD0HAgQ02MgJvCGAx5Q8JA8xMIDgo9SHaaV/t2Zd0Ex8jRpB0EIImmIPAitwQl3igjIPVDegpBWzMdlewTthbqZnPRsT2JEQRi61KqcIatB8/PleNEAcns5ofTb8vtok7U+DygIhVDlCDQlfNL+yQmAA8VDwAUAy4FhFwHD29ktTJhJlb3PPh8BhYyCzT7/6SEupHUSdFzwQELgrRPlgUGFSxxIsrZJmoprKZk8BucBW8aQ5BgG5fBuTrK8cdL+SS4cTXpbBC1niRq0vFLKgp8HHCQuvru5OU/QDdQCQYu/5/fQnE7j633/v3yuaWt86nH7DQ==);fillColor=none;strokeColor=#FFFFFF;" parent="1" vertex="1">
          <mxGeometry x="-680" y="146.25" width="198.75" height="118.75" as="geometry" />
        </mxCell>
        <mxCell id="Weqxmp7_vVV9m2XcrIA7-27" value="" style="shape=stencil(lZXLcsIwDEW/Jts7suWHvKb0P5ghlEwpYYC+/r5OM6F1IILsHOdItqUrqeLFabs61JWl0/nYvtafzfq8rfipsrbZb+tjc86ripcVLzbtsX45tu/7df99WHVkt3prPzoPX70dgagzsvTdb3AEpd+d557fNXuVF4ifwTuCDXN4RqI5fADP8e8Jac57fUBS3xul4INFMtO8gQ8ln+DdNG/BruBjgNhpnmG44MXBKPfh4bYDn/KLeJp3CKnkA0jhPVws+TS86CYfYH3BG7qk5DGDJAgyh3eIc/yLgBT/cQjHJWECowgoQsoEhHyiEtAcvlJw3oGV+xuDaMuKsYOL2wYOUkqOswulZIwgliHKqvWKRrOIbHmlfKaPikhprKKcY03UAjsKkhqj3EOk5Bms+PdXVWDUppJ7gqcRz0qAIg3HDzwhKE0uxnGX0GtG7Fh0d/ireOp8MnBz/CceK+gOH4aZ9Vh8UkSyI160EqCrMaAn7IaBRSiqPi/+ZvKm2e36kf7//3iG561+/vPyBw==);fillColor=none;strokeColor=#FFFFFF;" parent="1" vertex="1">
          <mxGeometry x="-355" y="160" width="80" height="94.375" as="geometry" />
        </mxCell>
        <mxCell id="Weqxmp7_vVV9m2XcrIA7-28" value="" style="shape=stencil(lVbZUsMwDPyavO5Ils9njv9ghkIzlJYp5fp7FEIhdoKYvDmx1qPVrmR3cvG8vXnadI6eT8fDw+atvz1tO7nsnOv3282xP+mqk6tOLu4Ox8398fCyvx2/n26GyGH1eHgdTngfcQSiAeToY/zhA3L4+nM9xu/6/SQ+IMQ18azbsgYgAlkF8AwOqygI4ipADIirUkpxoUq+/A3IEb4BeKT0N6AIUsNB6+YMQIJvhCYkI6VS4HMFkATOhtI085I4k3XJKDVrF5HYAERIzVr9G4ycCiOmCsAe3htCqE6uAmTEaCidQE2VUAzdYoarraQqGLKF3HbDT5GXmyGh1Pk7sJGPZFAdH5ENvq6cj5sUlAwFHCPXBdIKscGAY9vOOhGCQYEdQuNsf/b6sikgdUZB+9uIT3ClLlFAMuJ1t5YseYhBYBafGcWaLm0+OUEMzZhaT2tbiNEEPJt3xcMZLlWTNcNl6FSj84Vazjqfvu+JZV/TLKV8dvpyURnka0BBNEhHQqkBk4G2rANBeB0itzfPf4jsUWgN7/nEU4B5MfjzNTCRgq0hPLvR9Yjar7r4fW/c9bvd+FyZ7rfvE/01vm3k6hM=);fillColor=none;strokeColor=#FFFFFF;" parent="1" vertex="1">
          <mxGeometry x="-110" y="140.625" width="120" height="173.125" as="geometry" />
        </mxCell>
        <mxCell id="Weqxmp7_vVV9m2XcrIA7-29" value="" style="shape=stencil(lVfLctswDPwaXTEgwec5Tf8jM3FqT10747ivvy9cjZQQlLflTYaxIgXsLsFJHt72T6+7yfPb9XL+uvt5eL7uJ/k0eX847XeXw1WfJnmc5OHlfNl9uZy/n57n369Pt8zb07fzj9sbfs04FynXG8rz7zniM/n8N/J5BhwPJwyo5OsIQBJJGgGEQG4MUMi5EUAMVP0IIHlyY4BCNYwAciA/BijEAgESG0BhEgaAQCG3K1RcJVnatAISFUQNpmoAjjxoXKGcbRtKuZ+fKJa2zwJrFEgMkfT9oERKAkNtTzXez2cKodWOUAD7Z2Ju8rWJDrzfkfi2xZRBOQOVNl11BqRfKbUEcri7HUOZMpCx1sJHky+gOOLIBZPPoFmi7HUD7w+ZijPf64AiY1dOD500MUUZKH8Kdv9pWXA7P1Nt2V+pAPKkSrmtpwrag4apWNkQIi+R/wTcFIEATK79BCVJAVtSlw2mB9iCUiLfNkGrBLvQmZzykMGWYl0s7YNJRMC7nkciWMaVotlSgJ0OaxFXQFy4si2dQqk1Ij3DM9CC7ljaskqGTq1Oxa21q1wZsFuJkIoFZDS4dPQOqwC3AR01gqOEVgjEZgW/0HEb4CkbA5aF8PcAvlgAHCvENk5nqYwO/bR84gqIUKK+07T6piBAtoem8jeBKimZjYAiNtb3Nq2AuJBlW3HdORuxVcZi6Z3W0WHbNUbnQbXK2q6QsfPlrqz/mAeLs8ORRtB5UqI9rzTi0Qqda2gEHSiVbZU0UoHzVd8dcVhANVgTqJEYAfLy9wpIVNGQVOwUUyse5Lmf8thOMvrwfoN7ORyP8wXw4//2xqeh+bYoj38A);fillColor=none;strokeColor=#FFFFFF;" parent="1" vertex="1">
          <mxGeometry x="-1592.5" y="-1080" width="142.5" height="165" as="geometry" />
        </mxCell>
        <mxCell id="Weqxmp7_vVV9m2XcrIA7-30" value="" style="shape=stencil(rVbLjsIwDPyaXq0kzstnlv0PJMpSLQsI2Nffb1DVQpIyqNLeSvEk9ng8dcOL83Z1bBujzpfT4b397taXbcMvjTHdftueukt6anjZ8GJzOLVvp8Pnft3/Pq6ukdenj8PX9YSfHucUKXVFGfXbvxlfvPbxu27/JD6aOfGaJMyJZ4qz4i3JrHw8BXy+M1l8JI/ON6RiXq8i6wHAkg45wBBrAAhkJAckitxjgNdDAiPADUlOAxx5zgEeiiKoIeM7AGIpuJLVBEBti4pMcUOigQHAEsdZN0RytgSgPogmH0pavQAAU3A5wELtiaNY9IGHJKcBgWwxbAY2TiLZomisVhGyOa0RsqpVNW8RZvQ/gJkpaQ3nYQphIU1TCIHimEAkZ9JgrCcQ/EQeVfOshs6R5CG5c7gn8qgE6ARSK2kCcjPzYRjcR1On8yFKXoIA0ZfuF3HRtdVEnFIwZdGCp85zaTWCa3BMOjeCRDSqwfJgjiNA4A08fkJuRoAXAeNK9ckThQfSeauTvJD9JSsSW1aNPN+TcXNorVlleL4mlytJFCygXh2wldVG5mA+9flY2Wrozzg6Qhr5Hqmc/4C/iNXqkyYj3wLSw20R3XS7Xb/H3v9fLq7pVb/08vIP);fillColor=none;strokeColor=#FFFFFF;" parent="1" vertex="1">
          <mxGeometry x="-1470" y="-995" width="120" height="203.125" as="geometry" />
        </mxCell>
        <mxCell id="Weqxmp7_vVV9m2XcrIA7-31" value="" style="shape=stencil(lZbbbsMgDIafJrcW+IDheof3mLR2jda1U9ed3n5EUbuZrE5zR6m/gPl/Gzq6eds8vK46DG/Hw/559dk/Hjcd3XaI/W6zOvTHOurorqOb9f6wejrs33eP4+/XhyFyGL3sP4YvfI0cMmAYKAzf40yAME7cj/HbfufGJyhefADNJj4KRL0MxAKEBkAFKQ6QIScDEEFCB1DQYgBmyOQACZQMIAmCBwgku6WkgLwE0JmkJ1vKCTC6x1osUAjiIqGLAjsrUIBkgRh8L1GBKHaJOuMcEyskq1xJIHIZEAVqkohA+TJQdSpqz5WBHWDQyfp7RrksEGzSqbjuqzvmxkzRlbrIxK7obqkK21QQy+mg/zfTr7Dnmsunorqa8Kt0uqlqMK9xFG5rqLYm9VaYHGz1vGe/rBCt/RDdksgRstUao+tXFWC2QHCVSOfueyUgGSgtAbi6E5fkwNWdtiKQTjP/twEEbZKWhXfQ3BUx6ZYzXoqhvYRm3JraoiaF4CyArTE4gDjfr7dotPF0alRXxvuNclKdVXZ2mtLk+xLdWpvkK+0roA5+3yjrfrsdnzh//2/fNHVqfA/R3Q8=);fillColor=none;strokeColor=#FFFFFF;" parent="1" vertex="1">
          <mxGeometry x="-1294.166666666667" y="-985" width="58.54166666666629" height="72.5" as="geometry" />
        </mxCell>
        <mxCell id="Weqxmp7_vVV9m2XcrIA7-32" value="" style="shape=stencil(lVXRbsMgDPwaXhHgGMhz1/1HpaYLWpZUaba1fz8iVlqFienewNwZ+2ywoN2lP5w7YdRlmaf37jscl17QizAmjH03hyWuBO0F7U7T3L3N0+d4TPvzYUWuq4/pa/VwTTwllVpJRt02htcEH8JYg5MkAuAt5l030rQI3krDAD5aLBK+YSz+mC95RE2SGomHwHzJS4fgG435bwj0z5j+jZUe0bMB82Ww+1lj8TCoD4P6sMf6x9brm7sr4+v9r43kzQX1Auh8fCe4+gt4PMBMcPc7/ySQ24bk6zXjQiRff2S2SLqtd5ErcmjrSfv8yWaCldZVZFXlx/tPIUrGk+mXEhePMXIKw5Cm0PP5duxEUxpZtP8B);fillColor=none;strokeColor=#FFFFFF;" parent="1" vertex="1">
          <mxGeometry x="-1225" y="-965" width="10" height="100" as="geometry" />
        </mxCell>
        <mxCell id="Weqxmp7_vVV9m2XcrIA7-33" value="" style="shape=stencil(lVXLcsIwDPyaXHdk2fHjTOl/MEMomVLCBOjj7+tMxhSHVMQ3R9m1pfVKrvTqvN+cmorpfOm79+ar3V72lX6pmNvjvunbS1xVel3p1a7rm7e+ux634/dpMyCH1Uf3OezwPfIIRAOJ6WcMGA81Rl5H/KE9SvjawNcFeMtgX4L30CX7O4IPJXiH4XMx3hfm7x20KcAHhlEleAsuuS9Ft9DCAzyclvDO5HiDIBQc5VO5QBYkCKphfX5hJkVm8TV8jo+GIyF/DwolDaBU2i4RtIESElIGLq84asaCpVV0fF6CIiihhKhRnafEKTCPD8liCS9bQls4mycEdv/jTRSE8yEBssKVcXLMwoKtekjIwggn2JCG1E0hAxLuwPmp7bSCFQi+Bk98RKiFRg4Ekxf9xHjhUdUaTiK4pPrCVoidPvHRk+EbAjg/4Ulz3g2fGyPASc3wyPDxxRGEnWFErbXU0jMMearOMaZjMi7+Ht1deziMb/b9/+kjHUPjA6/Xvw==);fillColor=none;strokeColor=#FFFFFF;" parent="1" vertex="1">
          <mxGeometry x="-1150" y="-998.75" width="85" height="49.375" as="geometry" />
        </mxCell>
        <mxCell id="Weqxmp7_vVV9m2XcrIA7-34" value="" style="shape=stencil(lZTdDoMgDIWfhtsGWgt4vbn3MNFNMqeLur+3n4aLidlYuCv0fLSnSRG0G5vyWguU4zT05/rhqqkRtBeIrmvqwU1zJKgQtDv2Q30a+ltX+fO1XJRLdOnvywtPz0mQcoFQvjYXBy9vXbeSM1ibIFcSOE/Qz2llUvSc1j5lwDpBnxFQ6FchcGw+CKgC4NPiV0ArMGFHZKIVdA6WA4DjHoyGLJypjnuwCBRWMHEPVm892LgHm4MJp6Rk3ESOoDmNyLZz+ksYkDqNsMCURKzyv5E5+Kzr0bWt3/Z1frve85X/Gqh4Aw==);fillColor=none;strokeColor=#FFFFFF;" parent="1" vertex="1">
          <mxGeometry x="-905" y="-1030" width="85" height="5" as="geometry" />
        </mxCell>
      </root>
    </mxGraphModel>
  </diagram>
  <diagram id="8fG0D_o-KjkYkP2qFr9S" name="Page-2">
    <mxGraphModel dx="7280" dy="4170" grid="1" gridSize="10" guides="1" tooltips="1" connect="1" arrows="1" fold="1" page="1" pageScale="1" pageWidth="850" pageHeight="1100" math="0" shadow="0">
      <root>
        <mxCell id="Qj1BHNdwLNvlFl1ykU33-0" />
        <mxCell id="Qj1BHNdwLNvlFl1ykU33-1" parent="Qj1BHNdwLNvlFl1ykU33-0" />
        <mxCell id="aMCNZY2N5LQKs1CeslCn-0" value="" style="whiteSpace=wrap;html=1;aspect=fixed;" vertex="1" parent="Qj1BHNdwLNvlFl1ykU33-1">
          <mxGeometry x="-1710" y="-1090" width="2540" height="2540" as="geometry" />
        </mxCell>
        <mxCell id="aMCNZY2N5LQKs1CeslCn-1" value="" style="rounded=0;whiteSpace=wrap;html=1;fillColor=#0050ef;fontColor=#ffffff;strokeColor=#001DBC;" vertex="1" parent="Qj1BHNdwLNvlFl1ykU33-1">
          <mxGeometry x="-1700" y="-1100" width="2540" height="190" as="geometry" />
        </mxCell>
        <mxCell id="aMCNZY2N5LQKs1CeslCn-2" value="" style="rounded=0;whiteSpace=wrap;html=1;fillColor=#0050ef;fontColor=#ffffff;strokeColor=#001DBC;" vertex="1" parent="Qj1BHNdwLNvlFl1ykU33-1">
          <mxGeometry x="-1700" y="1250" width="2550" height="190" as="geometry" />
        </mxCell>
        <mxCell id="aMCNZY2N5LQKs1CeslCn-4" value="Text" style="text;html=1;resizable=0;autosize=1;align=center;verticalAlign=middle;points=[];fillColor=none;strokeColor=none;rounded=0;" vertex="1" parent="Qj1BHNdwLNvlFl1ykU33-1">
          <mxGeometry x="30" y="320" width="40" height="20" as="geometry" />
        </mxCell>
        <mxCell id="aMCNZY2N5LQKs1CeslCn-5" value="" style="shape=stencil(lZTdboMwDIWfhtujxE6c5Lrr3qNS6YrGoKLd39svCLWb2Wppd8Hki88hBze8OR93p7Yhd75M43P73u0vx4YfGqJuOLZTd6mrhrcNbw7j1D5N4+uwX55Pu3nnvHoZ3+YTPhbOOwfnZozc51K6FR4XoO8GG/DI8V9AROH7QCmQVQOCTwaQUUQDAjI8lIRCCiBCMDwUQWQNFFtShA8KYIH3BsAI2nQgxGIAHqw9hAwxOuSMqCVFRgkGEBF0h5jBxsVlD4oKkBoNQ1ISJC1Jgg14+KyBhEz3AeG16XoEG9GIEeQ1UCuG6SBrSalcr/JPgBO8/kq5ipT7AGWEpIGEaHSof3AoCigOxUirdxAtqeZXsmH6Gv7bfjt7v0eGW0+ZuvieUYeu75cR9/P9eqbV0jIPefsF);fillColor=none;strokeColor=#FFFFFF;direction=south;" vertex="1" parent="Qj1BHNdwLNvlFl1ykU33-1">
          <mxGeometry x="-1115" y="-265" width="270" height="180" as="geometry" />
        </mxCell>
        <mxCell id="aMCNZY2N5LQKs1CeslCn-6" value="" style="shape=stencil(lZTbboMwDIafJre/EjvH6657j0qlA42VirLT2y+ISW2gy+Q7Ez47tmP/infX9nBpFOnrNA6vzWd3nFrFT4qoO7fN2E3ZUrxXvDsNY/MyDu/n4/J9OczkbL0NH3OEr8VPQ+vZifT36uB5wfvufIcbUBTgHsZJohsEkvAW5CV8RJDkQwwniU8RPgl4ZlgRH+Al+ViDyBLewQcJn+Al4+AstJHwUdYfzzBWwgeEMr4Hub/5QLBlfENwlQuCRygf7DaCDx2igS4zIlctITqYcoHzkNRSirmnZUqu3qRkwOXS+HrRiddbFuo1pM3Y5TbU3iHlPShvyEn+hnjskKBXD6f/kQq9UcatSzZuunrq+n6R5fv/ax3OR4uG8/4H);fillColor=none;strokeColor=#FFFFFF;" vertex="1" parent="Qj1BHNdwLNvlFl1ykU33-1">
          <mxGeometry x="-1295" y="-605" width="390" height="10" as="geometry" />
        </mxCell>
        <mxCell id="aMCNZY2N5LQKs1CeslCn-7" value="" style="shape=stencil(lVXLbsMgEPwarivY5bGc0/Q/IsWprbp25Dh9/H2xqNLU227lG8YzzM4ygKHdpT2cG4P2Mk/jc/PWHefW0INB7Ia2mbq5jAztDe1O49Q8TeN1ONbv82FBLqOX8XVZ4b3ynLVg7UJD+1GnbhOPldB3w3+E6DcRCHzcREgQ8yZCBlYUcoLwE+8IkmI6h7WAY7CkEERFiMBKl1goLKYVQhIeCCErJSW5DQky/02IuFbwpJoOwoMvXVIUvPAQSpc0gvAQ9GiQKKm4QiUaJBRiBFZMo1AojY5JIch0ewioxFsqMDilJCcU2IFXuiS2gT1EpSJREN9W+N3yev1yPJySbXmcEchtwXvwyhZIfAQXtuATkBIiiWdISj8lPquJEPi7G/CLUAbfV/6p6/v6Ytz/Xz8RZao+L7T/BA==);fillColor=none;strokeColor=#FFFFFF;" vertex="1" parent="Qj1BHNdwLNvlFl1ykU33-1">
          <mxGeometry x="-1115" y="-590" width="25" height="260" as="geometry" />
        </mxCell>
        <mxCell id="aMCNZY2N5LQKs1CeslCn-8" value="" style="shape=stencil(lZXbbsIwDIafpre/Ers5+Jpt74FEGdUYRcBOb79UVRlJwVPu3KSfneT3oeHVebc+dg2Z8+U0vHVf/eaya/ipIeoPu+7UX5LV8HPDq+1w6l5Pw8dhM30f1+Ofo/U+fI4evifOwJgRIvMzLVhzXXqZgH1/uAEIFKsAa0A+I2KA0wABSQYEpx+JESgDfERwjwE2CCEDnICjAgTEPILTL922aNsMaA08PwbcQggmRKsALUz+rCTwogCh1IE8nFeA5C+/NOk6eAvXVgGMKFWAR+uqACl1+AcIBF8VIeVmrANkIRzPh7wLRFoIZxGVbI3pAMWlDVjJpVSQnOtg9QKKAsc5EGCV5BNbCmedWg9CkAK4Jvx9YFFxltQ2Iw6BqwCPIFVAKHMp9UJRlJY4+5sBvS2JwOYBIlh71CRb3vc8SJH5prXPQNn2kvE3Wrb9fj9Nptv9chSlpWmM8fMv);fillColor=none;strokeColor=#FFFFFF;" vertex="1" parent="Qj1BHNdwLNvlFl1ykU33-1">
          <mxGeometry x="-1170" y="-340" width="292.5" height="40" as="geometry" />
        </mxCell>
        <mxCell id="aMCNZY2N5LQKs1CeslCn-9" value="" style="shape=stencil(lVfZctswDPwav2JIguDxnKb/kZk4taeunXGcHn9fuBqqBSmt0jdZxoo4Fgtwxw9vh6fX/S64t9v18nX/4/h8O+z40y6E4/mwvx5v+rTjxx0/vFyu+y/Xy/v5efr9+nS3vD99u3y/f+HnhHPk3B0U3K/pRcoU0p83nyf70/GM7LOnWtbtPUmw9pl8XrdnCmLsi34/rNtH8t7aR3Lg+0LZ+l8KOVm312wUY18DubhuX6gkay/kGeTHtb9nQKZcISB3J1QSULER4N1cxTVEjP0RHhShUqzWPlEELmWqvk9qBCRKxDZHJVEGSY2ULYlypQSKzORthpTUCZK6dk0TiEHNHFXrjzAJINFgHzdIRGJJypjUQ7zsG20/1jRakQriHZpAT4zAHx8odQBHBTE0k7OM87VxahGgKSqxB0SgExphyP9zArshSTgGjlRsF4RAgqSxULBBa2EC0kbfunAGFGIEiMQ2Bg7tzTIg9fLOqQnmMqC0xp2prXkDaRVHqQPgXpDQcjIDsD5qL0bbPRvdKZGidUmUjiBoEXK2DlKhfimArUtJWxzUQYYO3QZ0J2y71McgTWU/mKXtOhQbQ8RTQUYZ25j92l/WJe1yj8g3cMkX8ogaI2CjDgP51COgrGMZApxsMuwvKkoop7UXJbwqpEG5591h2V6odAlqs33ZvvaKhOPNyomORFQAJfIg87qboM2l9qzeKHBRznWTSqiCiIv069rGHNEFNnVzRFpRlre1YSzo7BLgUmVKNkksFIFLuvN2WzzXpjfLgGGOaO+jtV+X5Ghd0lHkEKAMxCgtqjVAtC4Jbp06jDaZyfhRACbrAgCrha7trls8c0v0GsAPkwr1vwLY1iHphQatzm68cfYIffh7XX05nk7Tbfff//vrrb6arsb8+Bs=);fillColor=none;strokeColor=#FFFFFF;" vertex="1" parent="Qj1BHNdwLNvlFl1ykU33-1">
          <mxGeometry x="-715" y="-510" width="197.5" height="141.25" as="geometry" />
        </mxCell>
        <mxCell id="aMCNZY2N5LQKs1CeslCn-10" value="" style="shape=stencil(lVbLcsIwDPyaXDW2/JLPtP0PZgglUwoM0NffV2mmLY7Kdrg5jteWtLuyu7A4bZaHvmN3Oh/3T/3bsDpvunDXMQ+7TX8czjrqwn0XFuv9sX887l92q+n7sBxXjqPn/eu4w/uE85FSGlHsPqaZGojd18zDBNgOOwyIVDMAZHKuBQjFeh3ATJIbgHfue4+/EZlCi6iVxF8HBE/Cc4BPAFDJ1RZQyJfrgFiIyy11TSYHyZRAmXKi2BJRhDIgojCV0ABypQiqJG7OXBKSAAAmhyjEoKzV8BAKZQEAkzSrmBgAhLy0Yqowhwut/SCUuZuOKFTBCdU4KFAFUhKbAgUQj9JWfbMeu8fqAu+fA+V4Q/zJ7C9Q2NHErwQIEIV18z8cs8lAKfOo6Rk3h0QOqciEFBkWyRyQHHEEOc8z0P4hwGkmnqxdFmRsOMhCDnBgTDOqCvQWu16vCSA6ux43OxO/uiKDepr6iIe3mtU0UwaCMJ4XbSrABEYPur4ifk2BJFIGBHijIEmwbVkPSIHN3XKmnSwBD2iRuA2pOkqIBHvJetgp2F7j81tZB79vpfWw3U5Prcv/87eVTk3vsnD/CQ==);fillColor=none;strokeColor=#FFFFFF;" vertex="1" parent="Qj1BHNdwLNvlFl1ykU33-1">
          <mxGeometry x="-390" y="-533.125" width="68.75" height="94.55357142857167" as="geometry" />
        </mxCell>
        <mxCell id="aMCNZY2N5LQKs1CeslCn-11" value="" style="shape=stencil(lZPNbsMgEISfhusIWGCXc5q+R6Q4tVXXjhz37+1ri0NjLCNxW+Abdgcxik6P9nJvlNWPeRrfm+/uOreKXpS13dA2UzcvlaKzotNtnJq3afwcrml9v6zkWn2MX+sNP0mnofUqsvo323hNeN8NJZzguQI3GmxqeIaECt5acM08ZGB9Be80Ah3zDoY3vNdwhfsFRFs+QuwxbwLCtkEQcKGB9bkDDuB4LCDKRxIHkoJlk48kEVx4I797pEhFD2FnOga4QgdmsGwFAil8O9mZNrqcg6fzY8lS/Mfu1vV9Su3zeR7TZStFnM5/);fillColor=none;strokeColor=#FFFFFF;" vertex="1" parent="Qj1BHNdwLNvlFl1ykU33-1">
          <mxGeometry x="-335" y="-495" width="15" height="140" as="geometry" />
        </mxCell>
        <mxCell id="aMCNZY2N5LQKs1CeslCn-12" value="" style="shape=stencil(pZbbTsMwDIafpre/EjtO4msO74HEYBVjQ2Oc3p6MqmxuN6OJuyz1N8e/D0nHV6/Lu5dFR+F1t908LT76+92y4+uOqF8vF9t+11Yd33R89bDZLh63m7f1/fD75W5vuV89b973//A5cEkQyp6i8DXsBITws3E72K/6tWsvEHXsCZWMfUwQOQ9wRWYDUEKpDiCgaAAO4xlPAwGqFlDUfB6gjJINkBTZiYEIkqxIipTOA7GCbQy5QtgBMjQYoLQdcgBBskFXBnnA7EhVIdEJWsBiAGUUB2BGtTFohni1R6CJh1YsDiCEaGOIwS/vzOBqXSjYAUpTMV0SRJM9hqlMwZFJA6L1UOsY1mkggW2L1jg24WmgINqgS0L0qu+g4m+9trlwGSECdVpifqhU3MGhBJ10aYA4bV1l7JjfOZBAzuAoBcl6IB2lPl1NBdnWX2uS6gCSwTbXxO7wm4/jBoSLpmUbVuwA87b+w8N8NP0RQ4yj6kcqRS8PCBORipu3ltXJjeKnbXZlcURy7NvXyQXEEMd+1grc0u4U6txeEf9l3xaHB8FDv1oN74nj79MHRNsaHh988w0=);fillColor=none;strokeColor=#FFFFFF;" vertex="1" parent="Qj1BHNdwLNvlFl1ykU33-1">
          <mxGeometry x="-225" y="-525" width="44.375" height="89.375" as="geometry" />
        </mxCell>
        <mxCell id="aMCNZY2N5LQKs1CeslCn-13" value="" style="shape=stencil(lZXbbsIwDIafpre/HDvHa8beA4kyqjGKCju9/VJVZaRs3nKXJvnq0++4kdV5vzm1DdP5MvTP7Xu3vewbeWiYu+O+HbpLXjWybmS164f2aehfj9vp+7QZb46rl/5t/MPHxBkiEI0Y0+e0dd14nIBDd9QBA8dVAINjFeAQfRUQ4VxdDIxYF4QJSHU2WJCkihADqrMhEaGOsB5GIVKCD2UxBE6pRgbIFIAnWEVRKYKkBPxs82fAQ2IBBAYpikp2Pr4CAWwUgBBSKSgDq1iIOYmlhehgkgIQ3MJChFeyFOwyrSm7pBQuJzGULiVBUPTnIuICcDpA8L4EAqz9HbAMs4ghN6qSVpE7lxKs4hJnaXDZpvTHe5Z/aOoImZ+KfzqVZq3dRK29Z24pjXyfFS2ZueVvyuAVf+6egLGhlIDv7y91kRffA2bXHQ7TfLo9Xw6kvDUNM1l/AQ==);fillColor=none;strokeColor=#FFFFFF;" vertex="1" parent="Qj1BHNdwLNvlFl1ykU33-1">
          <mxGeometry x="-385" y="-470" width="190" height="219.375" as="geometry" />
        </mxCell>
        <mxCell id="aMCNZY2N5LQKs1CeslCn-14" value="" style="shape=stencil(lVZdU+MwDPw1edXYlj+kZw7+BzOUa4Zey5TCHf8e5TItrVW2kzcn8UZeaVfWwHdv68fX1ZDC22G/e1n9HZ8O64F/DSmN2/VqPx5sNfD9wHfPu/3q9373vn2an18fp53T6s/uY/rDvxkXKIQJlMLn/KIlKvH/m4d5/2bcnu23r4v269L/Lz5QpqpLAJwoLgMosSwB5EqlLgEUpsiLAM2VIRKXnwHVpbVaZUCEGimVS0AmxYCOdLEIFR6J4yUgkAggLZTzBSBbzAQApY8w1R4cqTgOpndBlW69lqLJERwpe/FRDUB79ZiS04mIM9jvGJwKf909TkiBCqiBuS10GSIFfJNXBQnQadTezUoK+EaniRsFiO1Y0BNAoeqiy1CqxDhCB7ihuisAgd70HDKToAjeOUoNRXAtr5j7G2zbehnB7J0YAFLPoZZjGq4DnJlboIik6ki3DLVn3um81pQK4MDuSMJUEUB790ijhttFlyWNMK129XRtWzNFQLq4i0ErZQUA7tOqcox5HeBamCplQLo6LcWAu1h1hbiJ8H1GSEBiTTudI7RRAPJrrtZWiQZamfjERnj5iOsbYhxA6dTd6VJIQd9Q1+0lUUYAJ78bFrKsczf5mPzQPOmHMezqMyX8OFzZ4ns+fh43m3m8Pv/ez9P2ap7F+f4L);fillColor=none;strokeColor=#FFFFFF;" vertex="1" parent="Qj1BHNdwLNvlFl1ykU33-1">
          <mxGeometry x="-100" y="-552.5" width="200" height="106.875" as="geometry" />
        </mxCell>
        <mxCell id="aMCNZY2N5LQKs1CeslCn-15" value="" style="shape=stencil(lVbLbgIxDPyavVpJnDjJmbb/gQSUVSmLFvr6+3q1otSBTsUtLDNOxh476Xhx3C4P6y6442kcXtYf/eq07fihC6Hfb9djf9JVx48dLzbDuH4eh7f9av59WE7IafU6vE8RPmeeI+cmUnBfzYenGb7r9wjuKcU74IlKuic634kvFAXhUzZ4PU8FeE8xGjxHckBuILbniYFK+RvPlG38hNOZzurOeMHVyhStXsmUAL5SLAafcf69p9wQKgUGBFVcDaEwCdohUQqWgCX4TMHmtGrVQQ3UMmyPVANJBQSVmCyBKWRIKNzu4AOwkaNofVQ0hIcEadIq5EFabxC0lKBwSqhNpYUq0uCp2DpkjwmRvCWoWRmJzm23CfYSexJvCR5miaW1d6okQMPU7qEloH6I2nF8zw5JyFmCjgAG9hY1c2xFoxkjhXyTVjzEcqBqvSQRasiZXFMH7KXiruYeztI0VGwdMtag7RKtBrU3ypI2JNvRWnAdqpqvIeC7RIeKWPPp5ENzqaZ2alRs75rJN3PpnyOV823wQ9AQSPSVvS8hbo9Kd32lu/aO08XlNbPpd7v5MfT7//b1o5/mlxM/fgM=);fillColor=none;strokeColor=#FFFFFF;" vertex="1" parent="Qj1BHNdwLNvlFl1ykU33-1">
          <mxGeometry x="-1020" y="-90" width="217.5" height="325" as="geometry" />
        </mxCell>
        <mxCell id="aMCNZY2N5LQKs1CeslCn-16" value="" style="shape=stencil(lZVLcoMwDIZPw1ZjW36u0/QemQlpmKYhQ0gft68o4zYyRJSdMfosS/olV7i5HneXujLq2nfta/3R7PtjhU+VMc35WHdNT6sKtxVuDm1Xv3Tt7bwfvy+7wXJYvbXvwwmfI6dAqQEy6mvcMBGs+dl5Hu1PzZnZR7vGXitwYQ1gAvhVAAbQeg3gFHhcA3gL2q0BQgD0HAgQ02MgJvCGAx5Q8JA8xMIDgo9SHaaV/t2Zd0Ex8jRpB0EIImmIPAitwQl3igjIPVDegpBWzMdlewTthbqZnPRsT2JEQRi61KqcIatB8/PleNEAcns5ofTb8vtok7U+DygIhVDlCDQlfNL+yQmAA8VDwAUAy4FhFwHD29ktTJhJlb3PPh8BhYyCzT7/6SEupHUSdFzwQELgrRPlgUGFSxxIsrZJmoprKZk8BucBW8aQ5BgG5fBuTrK8cdL+SS4cTXpbBC1niRq0vFLKgp8HHCQuvru5OU/QDdQCQYu/5/fQnE7j633/v3yuaWt86nH7DQ==);fillColor=none;strokeColor=#FFFFFF;" vertex="1" parent="Qj1BHNdwLNvlFl1ykU33-1">
          <mxGeometry x="-680" y="146.25" width="198.75" height="118.75" as="geometry" />
        </mxCell>
        <mxCell id="aMCNZY2N5LQKs1CeslCn-17" value="" style="shape=stencil(lZXLcsIwDEW/Jts7suWHvKb0P5ghlEwpYYC+/r5OM6F1IILsHOdItqUrqeLFabs61JWl0/nYvtafzfq8rfipsrbZb+tjc86ripcVLzbtsX45tu/7df99WHVkt3prPzoPX70dgagzsvTdb3AEpd+d557fNXuVF4ifwTuCDXN4RqI5fADP8e8Jac57fUBS3xul4INFMtO8gQ8ln+DdNG/BruBjgNhpnmG44MXBKPfh4bYDn/KLeJp3CKnkA0jhPVws+TS86CYfYH3BG7qk5DGDJAgyh3eIc/yLgBT/cQjHJWECowgoQsoEhHyiEtAcvlJw3oGV+xuDaMuKsYOL2wYOUkqOswulZIwgliHKqvWKRrOIbHmlfKaPikhprKKcY03UAjsKkhqj3EOk5Bms+PdXVWDUppJ7gqcRz0qAIg3HDzwhKE0uxnGX0GtG7Fh0d/ireOp8MnBz/CceK+gOH4aZ9Vh8UkSyI160EqCrMaAn7IaBRSiqPi/+ZvKm2e36kf7//3iG561+/vPyBw==);fillColor=none;strokeColor=#FFFFFF;" vertex="1" parent="Qj1BHNdwLNvlFl1ykU33-1">
          <mxGeometry x="-355" y="160" width="80" height="94.375" as="geometry" />
        </mxCell>
        <mxCell id="aMCNZY2N5LQKs1CeslCn-18" value="" style="shape=stencil(lVbZUsMwDPyavO5Ils9njv9ghkIzlJYp5fp7FEIhdoKYvDmx1qPVrmR3cvG8vXnadI6eT8fDw+atvz1tO7nsnOv3282xP+mqk6tOLu4Ox8398fCyvx2/n26GyGH1eHgdTngfcQSiAeToY/zhA3L4+nM9xu/6/SQ+IMQ18azbsgYgAlkF8AwOqygI4ipADIirUkpxoUq+/A3IEb4BeKT0N6AIUsNB6+YMQIJvhCYkI6VS4HMFkATOhtI085I4k3XJKDVrF5HYAERIzVr9G4ycCiOmCsAe3htCqE6uAmTEaCidQE2VUAzdYoarraQqGLKF3HbDT5GXmyGh1Pk7sJGPZFAdH5ENvq6cj5sUlAwFHCPXBdIKscGAY9vOOhGCQYEdQuNsf/b6sikgdUZB+9uIT3ClLlFAMuJ1t5YseYhBYBafGcWaLm0+OUEMzZhaT2tbiNEEPJt3xcMZLlWTNcNl6FSj84Vazjqfvu+JZV/TLKV8dvpyURnka0BBNEhHQqkBk4G2rANBeB0itzfPf4jsUWgN7/nEU4B5MfjzNTCRgq0hPLvR9Yjar7r4fW/c9bvd+FyZ7rfvE/01vm3k6hM=);fillColor=none;strokeColor=#FFFFFF;" vertex="1" parent="Qj1BHNdwLNvlFl1ykU33-1">
          <mxGeometry x="-110" y="140.625" width="120" height="173.125" as="geometry" />
        </mxCell>
        <mxCell id="aMCNZY2N5LQKs1CeslCn-19" value="" style="shape=stencil(lVfLctswDPwaXTEgwec5Tf8jM3FqT10747ivvy9cjZQQlLflTYaxIgXsLsFJHt72T6+7yfPb9XL+uvt5eL7uJ/k0eX847XeXw1WfJnmc5OHlfNl9uZy/n57n369Pt8zb07fzj9sbfs04FynXG8rz7zniM/n8N/J5BhwPJwyo5OsIQBJJGgGEQG4MUMi5EUAMVP0IIHlyY4BCNYwAciA/BijEAgESG0BhEgaAQCG3K1RcJVnatAISFUQNpmoAjjxoXKGcbRtKuZ+fKJa2zwJrFEgMkfT9oERKAkNtTzXez2cKodWOUAD7Z2Ju8rWJDrzfkfi2xZRBOQOVNl11BqRfKbUEcri7HUOZMpCx1sJHky+gOOLIBZPPoFmi7HUD7w+ZijPf64AiY1dOD500MUUZKH8Kdv9pWXA7P1Nt2V+pAPKkSrmtpwrag4apWNkQIi+R/wTcFIEATK79BCVJAVtSlw2mB9iCUiLfNkGrBLvQmZzykMGWYl0s7YNJRMC7nkciWMaVotlSgJ0OaxFXQFy4si2dQqk1Ij3DM9CC7ljaskqGTq1Oxa21q1wZsFuJkIoFZDS4dPQOqwC3AR01gqOEVgjEZgW/0HEb4CkbA5aF8PcAvlgAHCvENk5nqYwO/bR84gqIUKK+07T6piBAtoem8jeBKimZjYAiNtb3Nq2AuJBlW3HdORuxVcZi6Z3W0WHbNUbnQbXK2q6QsfPlrqz/mAeLs8ORRtB5UqI9rzTi0Qqda2gEHSiVbZU0UoHzVd8dcVhANVgTqJEYAfLy9wpIVNGQVOwUUyse5Lmf8thOMvrwfoN7ORyP8wXw4//2xqeh+bYoj38A);fillColor=none;strokeColor=#FFFFFF;" vertex="1" parent="Qj1BHNdwLNvlFl1ykU33-1">
          <mxGeometry x="-1592.5" y="-1080" width="142.5" height="165" as="geometry" />
        </mxCell>
        <mxCell id="aMCNZY2N5LQKs1CeslCn-20" value="" style="shape=stencil(rVbLjsIwDPyaXq0kzstnlv0PJMpSLQsI2Nffb1DVQpIyqNLeSvEk9ng8dcOL83Z1bBujzpfT4b397taXbcMvjTHdftueukt6anjZ8GJzOLVvp8Pnft3/Pq6ukdenj8PX9YSfHucUKXVFGfXbvxlfvPbxu27/JD6aOfGaJMyJZ4qz4i3JrHw8BXy+M1l8JI/ON6RiXq8i6wHAkg45wBBrAAhkJAckitxjgNdDAiPADUlOAxx5zgEeiiKoIeM7AGIpuJLVBEBti4pMcUOigQHAEsdZN0RytgSgPogmH0pavQAAU3A5wELtiaNY9IGHJKcBgWwxbAY2TiLZomisVhGyOa0RsqpVNW8RZvQ/gJkpaQ3nYQphIU1TCIHimEAkZ9JgrCcQ/EQeVfOshs6R5CG5c7gn8qgE6ARSK2kCcjPzYRjcR1On8yFKXoIA0ZfuF3HRtdVEnFIwZdGCp85zaTWCa3BMOjeCRDSqwfJgjiNA4A08fkJuRoAXAeNK9ckThQfSeauTvJD9JSsSW1aNPN+TcXNorVlleL4mlytJFCygXh2wldVG5mA+9flY2Wrozzg6Qhr5Hqmc/4C/iNXqkyYj3wLSw20R3XS7Xb/H3v9fLq7pVb/08vIP);fillColor=none;strokeColor=#FFFFFF;" vertex="1" parent="Qj1BHNdwLNvlFl1ykU33-1">
          <mxGeometry x="-1470" y="-995" width="120" height="203.125" as="geometry" />
        </mxCell>
        <mxCell id="aMCNZY2N5LQKs1CeslCn-21" value="" style="shape=stencil(lZbbbsMgDIafJrcW+IDheof3mLR2jda1U9ed3n5EUbuZrE5zR6m/gPl/Gzq6eds8vK46DG/Hw/559dk/Hjcd3XaI/W6zOvTHOurorqOb9f6wejrs33eP4+/XhyFyGL3sP4YvfI0cMmAYKAzf40yAME7cj/HbfufGJyhefADNJj4KRL0MxAKEBkAFKQ6QIScDEEFCB1DQYgBmyOQACZQMIAmCBwgku6WkgLwE0JmkJ1vKCTC6x1osUAjiIqGLAjsrUIBkgRh8L1GBKHaJOuMcEyskq1xJIHIZEAVqkohA+TJQdSpqz5WBHWDQyfp7RrksEGzSqbjuqzvmxkzRlbrIxK7obqkK21QQy+mg/zfTr7Dnmsunorqa8Kt0uqlqMK9xFG5rqLYm9VaYHGz1vGe/rBCt/RDdksgRstUao+tXFWC2QHCVSOfueyUgGSgtAbi6E5fkwNWdtiKQTjP/twEEbZKWhXfQ3BUx6ZYzXoqhvYRm3JraoiaF4CyArTE4gDjfr7dotPF0alRXxvuNclKdVXZ2mtLk+xLdWpvkK+0roA5+3yjrfrsdnzh//2/fNHVqfA/R3Q8=);fillColor=none;strokeColor=#FFFFFF;" vertex="1" parent="Qj1BHNdwLNvlFl1ykU33-1">
          <mxGeometry x="-1294.166666666667" y="-985" width="58.54166666666629" height="72.5" as="geometry" />
        </mxCell>
        <mxCell id="aMCNZY2N5LQKs1CeslCn-22" value="" style="shape=stencil(lVXRbsMgDPwaXhHgGMhz1/1HpaYLWpZUaba1fz8iVlqFienewNwZ+2ywoN2lP5w7YdRlmaf37jscl17QizAmjH03hyWuBO0F7U7T3L3N0+d4TPvzYUWuq4/pa/VwTTwllVpJRt02htcEH8JYg5MkAuAt5l030rQI3krDAD5aLBK+YSz+mC95RE2SGomHwHzJS4fgG435bwj0z5j+jZUe0bMB82Ww+1lj8TCoD4P6sMf6x9brm7sr4+v9r43kzQX1Auh8fCe4+gt4PMBMcPc7/ySQ24bk6zXjQiRff2S2SLqtd5ErcmjrSfv8yWaCldZVZFXlx/tPIUrGk+mXEhePMXIKw5Cm0PP5duxEUxpZtP8B);fillColor=none;strokeColor=#FFFFFF;" vertex="1" parent="Qj1BHNdwLNvlFl1ykU33-1">
          <mxGeometry x="-1225" y="-965" width="10" height="100" as="geometry" />
        </mxCell>
        <mxCell id="aMCNZY2N5LQKs1CeslCn-23" value="" style="shape=stencil(lVXLcsIwDPyaXHdk2fHjTOl/MEMomVLCBOjj7+tMxhSHVMQ3R9m1pfVKrvTqvN+cmorpfOm79+ar3V72lX6pmNvjvunbS1xVel3p1a7rm7e+ux634/dpMyCH1Uf3OezwPfIIRAOJ6WcMGA81Rl5H/KE9SvjawNcFeMtgX4L30CX7O4IPJXiH4XMx3hfm7x20KcAHhlEleAsuuS9Ft9DCAzyclvDO5HiDIBQc5VO5QBYkCKphfX5hJkVm8TV8jo+GIyF/DwolDaBU2i4RtIESElIGLq84asaCpVV0fF6CIiihhKhRnafEKTCPD8liCS9bQls4mycEdv/jTRSE8yEBssKVcXLMwoKtekjIwggn2JCG1E0hAxLuwPmp7bSCFQi+Bk98RKiFRg4Ekxf9xHjhUdUaTiK4pPrCVoidPvHRk+EbAjg/4Ulz3g2fGyPASc3wyPDxxRGEnWFErbXU0jMMearOMaZjMi7+Ht1deziMb/b9/+kjHUPjA6/Xvw==);fillColor=none;strokeColor=#FFFFFF;" vertex="1" parent="Qj1BHNdwLNvlFl1ykU33-1">
          <mxGeometry x="-1150" y="-998.75" width="85" height="49.375" as="geometry" />
        </mxCell>
        <mxCell id="aMCNZY2N5LQKs1CeslCn-24" value="" style="shape=stencil(lZTdDoMgDIWfhtsGWgt4vbn3MNFNMqeLur+3n4aLidlYuCv0fLSnSRG0G5vyWguU4zT05/rhqqkRtBeIrmvqwU1zJKgQtDv2Q30a+ltX+fO1XJRLdOnvywtPz0mQcoFQvjYXBy9vXbeSM1ibIFcSOE/Qz2llUvSc1j5lwDpBnxFQ6FchcGw+CKgC4NPiV0ArMGFHZKIVdA6WA4DjHoyGLJypjnuwCBRWMHEPVm892LgHm4MJp6Rk3ESOoDmNyLZz+ksYkDqNsMCURKzyv5E5+Kzr0bWt3/Z1frve85X/Gqh4Aw==);fillColor=none;strokeColor=#FFFFFF;" vertex="1" parent="Qj1BHNdwLNvlFl1ykU33-1">
          <mxGeometry x="-905" y="-1030" width="85" height="5" as="geometry" />
        </mxCell>
      </root>
    </mxGraphModel>
  </diagram>
  <diagram id="5akFtC8gmTmiVzVu9nP9" name="Page-3">
    <mxGraphModel dx="8857" dy="5193" grid="1" gridSize="10" guides="1" tooltips="1" connect="1" arrows="1" fold="1" page="1" pageScale="1" pageWidth="850" pageHeight="1100" math="0" shadow="0">
      <root>
        <mxCell id="tZTZFI5KvzDKFGGIXcyF-0" />
        <mxCell id="tZTZFI5KvzDKFGGIXcyF-1" parent="tZTZFI5KvzDKFGGIXcyF-0" />
        <mxCell id="tZTZFI5KvzDKFGGIXcyF-2" value="Text" style="text;html=1;resizable=0;autosize=1;align=center;verticalAlign=middle;points=[];fillColor=none;strokeColor=none;rounded=0;" vertex="1" parent="tZTZFI5KvzDKFGGIXcyF-1">
          <mxGeometry x="30" y="320" width="40" height="20" as="geometry" />
        </mxCell>
        <mxCell id="tZTZFI5KvzDKFGGIXcyF-3" value="" style="shape=stencil(lZTdboMwDIWfhtujxE6c5Lrr3qNS6YrGoKLd39svCLWb2Wppd8Hki88hBze8OR93p7Yhd75M43P73u0vx4YfGqJuOLZTd6mrhrcNbw7j1D5N4+uwX55Pu3nnvHoZ3+YTPhbOOwfnZozc51K6FR4XoO8GG/DI8V9AROH7QCmQVQOCTwaQUUQDAjI8lIRCCiBCMDwUQWQNFFtShA8KYIH3BsAI2nQgxGIAHqw9hAwxOuSMqCVFRgkGEBF0h5jBxsVlD4oKkBoNQ1ISJC1Jgg14+KyBhEz3AeG16XoEG9GIEeQ1UCuG6SBrSalcr/JPgBO8/kq5ipT7AGWEpIGEaHSof3AoCigOxUirdxAtqeZXsmH6Gv7bfjt7v0eGW0+ZuvieUYeu75cR9/P9eqbV0jIPefsF);fillColor=none;strokeColor=#FFFFFF;direction=south;" vertex="1" parent="tZTZFI5KvzDKFGGIXcyF-1">
          <mxGeometry x="-1115" y="-265" width="270" height="180" as="geometry" />
        </mxCell>
        <mxCell id="tZTZFI5KvzDKFGGIXcyF-4" value="" style="shape=stencil(lZTbboMwDIafJre/EjvH6657j0qlA42VirLT2y+ISW2gy+Q7Ez47tmP/infX9nBpFOnrNA6vzWd3nFrFT4qoO7fN2E3ZUrxXvDsNY/MyDu/n4/J9OczkbL0NH3OEr8VPQ+vZifT36uB5wfvufIcbUBTgHsZJohsEkvAW5CV8RJDkQwwniU8RPgl4ZlgRH+Al+ViDyBLewQcJn+Al4+AstJHwUdYfzzBWwgeEMr4Hub/5QLBlfENwlQuCRygf7DaCDx2igS4zIlctITqYcoHzkNRSirmnZUqu3qRkwOXS+HrRiddbFuo1pM3Y5TbU3iHlPShvyEn+hnjskKBXD6f/kQq9UcatSzZuunrq+n6R5fv/ax3OR4uG8/4H);fillColor=none;strokeColor=#FFFFFF;" vertex="1" parent="tZTZFI5KvzDKFGGIXcyF-1">
          <mxGeometry x="-1295" y="-605" width="390" height="10" as="geometry" />
        </mxCell>
        <mxCell id="tZTZFI5KvzDKFGGIXcyF-5" value="" style="shape=stencil(lVXLbsMgEPwarivY5bGc0/Q/IsWprbp25Dh9/H2xqNLU227lG8YzzM4ygKHdpT2cG4P2Mk/jc/PWHefW0INB7Ia2mbq5jAztDe1O49Q8TeN1ONbv82FBLqOX8XVZ4b3ynLVg7UJD+1GnbhOPldB3w3+E6DcRCHzcREgQ8yZCBlYUcoLwE+8IkmI6h7WAY7CkEERFiMBKl1goLKYVQhIeCCErJSW5DQky/02IuFbwpJoOwoMvXVIUvPAQSpc0gvAQ9GiQKKm4QiUaJBRiBFZMo1AojY5JIch0ewioxFsqMDilJCcU2IFXuiS2gT1EpSJREN9W+N3yev1yPJySbXmcEchtwXvwyhZIfAQXtuATkBIiiWdISj8lPquJEPi7G/CLUAbfV/6p6/v6Ytz/Xz8RZao+L7T/BA==);fillColor=none;strokeColor=#FFFFFF;" vertex="1" parent="tZTZFI5KvzDKFGGIXcyF-1">
          <mxGeometry x="-1115" y="-590" width="25" height="260" as="geometry" />
        </mxCell>
        <mxCell id="tZTZFI5KvzDKFGGIXcyF-6" value="" style="shape=stencil(lZXbbsIwDIafpre/Ers5+Jpt74FEGdUYRcBOb79UVRlJwVPu3KSfneT3oeHVebc+dg2Z8+U0vHVf/eaya/ipIeoPu+7UX5LV8HPDq+1w6l5Pw8dhM30f1+Ofo/U+fI4evifOwJgRIvMzLVhzXXqZgH1/uAEIFKsAa0A+I2KA0wABSQYEpx+JESgDfERwjwE2CCEDnICjAgTEPILTL922aNsMaA08PwbcQggmRKsALUz+rCTwogCh1IE8nFeA5C+/NOk6eAvXVgGMKFWAR+uqACl1+AcIBF8VIeVmrANkIRzPh7wLRFoIZxGVbI3pAMWlDVjJpVSQnOtg9QKKAsc5EGCV5BNbCmedWg9CkAK4Jvx9YFFxltQ2Iw6BqwCPIFVAKHMp9UJRlJY4+5sBvS2JwOYBIlh71CRb3vc8SJH5prXPQNn2kvE3Wrb9fj9Nptv9chSlpWmM8fMv);fillColor=none;strokeColor=#FFFFFF;" vertex="1" parent="tZTZFI5KvzDKFGGIXcyF-1">
          <mxGeometry x="-1170" y="-340" width="292.5" height="40" as="geometry" />
        </mxCell>
        <mxCell id="tZTZFI5KvzDKFGGIXcyF-7" value="" style="shape=stencil(lVfZctswDPwav2JIguDxnKb/kZk4taeunXGcHn9fuBqqBSmt0jdZxoo4Fgtwxw9vh6fX/S64t9v18nX/4/h8O+z40y6E4/mwvx5v+rTjxx0/vFyu+y/Xy/v5efr9+nS3vD99u3y/f+HnhHPk3B0U3K/pRcoU0p83nyf70/GM7LOnWtbtPUmw9pl8XrdnCmLsi34/rNtH8t7aR3Lg+0LZ+l8KOVm312wUY18DubhuX6gkay/kGeTHtb9nQKZcISB3J1QSULER4N1cxTVEjP0RHhShUqzWPlEELmWqvk9qBCRKxDZHJVEGSY2ULYlypQSKzORthpTUCZK6dk0TiEHNHFXrjzAJINFgHzdIRGJJypjUQ7zsG20/1jRakQriHZpAT4zAHx8odQBHBTE0k7OM87VxahGgKSqxB0SgExphyP9zArshSTgGjlRsF4RAgqSxULBBa2EC0kbfunAGFGIEiMQ2Bg7tzTIg9fLOqQnmMqC0xp2prXkDaRVHqQPgXpDQcjIDsD5qL0bbPRvdKZGidUmUjiBoEXK2DlKhfimArUtJWxzUQYYO3QZ0J2y71McgTWU/mKXtOhQbQ8RTQUYZ25j92l/WJe1yj8g3cMkX8ogaI2CjDgP51COgrGMZApxsMuwvKkoop7UXJbwqpEG5591h2V6odAlqs33ZvvaKhOPNyomORFQAJfIg87qboM2l9qzeKHBRznWTSqiCiIv069rGHNEFNnVzRFpRlre1YSzo7BLgUmVKNkksFIFLuvN2WzzXpjfLgGGOaO+jtV+X5Ghd0lHkEKAMxCgtqjVAtC4Jbp06jDaZyfhRACbrAgCrha7trls8c0v0GsAPkwr1vwLY1iHphQatzm68cfYIffh7XX05nk7Tbfff//vrrb6arsb8+Bs=);fillColor=none;strokeColor=#FFFFFF;" vertex="1" parent="tZTZFI5KvzDKFGGIXcyF-1">
          <mxGeometry x="-715" y="-510" width="197.5" height="141.25" as="geometry" />
        </mxCell>
        <mxCell id="tZTZFI5KvzDKFGGIXcyF-8" value="" style="shape=stencil(lVbLcsIwDPyaXDW2/JLPtP0PZgglUwoM0NffV2mmLY7Kdrg5jteWtLuyu7A4bZaHvmN3Oh/3T/3bsDpvunDXMQ+7TX8czjrqwn0XFuv9sX887l92q+n7sBxXjqPn/eu4w/uE85FSGlHsPqaZGojd18zDBNgOOwyIVDMAZHKuBQjFeh3ATJIbgHfue4+/EZlCi6iVxF8HBE/Cc4BPAFDJ1RZQyJfrgFiIyy11TSYHyZRAmXKi2BJRhDIgojCV0ABypQiqJG7OXBKSAAAmhyjEoKzV8BAKZQEAkzSrmBgAhLy0Yqowhwut/SCUuZuOKFTBCdU4KFAFUhKbAgUQj9JWfbMeu8fqAu+fA+V4Q/zJ7C9Q2NHErwQIEIV18z8cs8lAKfOo6Rk3h0QOqciEFBkWyRyQHHEEOc8z0P4hwGkmnqxdFmRsOMhCDnBgTDOqCvQWu16vCSA6ux43OxO/uiKDepr6iIe3mtU0UwaCMJ4XbSrABEYPur4ifk2BJFIGBHijIEmwbVkPSIHN3XKmnSwBD2iRuA2pOkqIBHvJetgp2F7j81tZB79vpfWw3U5Prcv/87eVTk3vsnD/CQ==);fillColor=none;strokeColor=#FFFFFF;" vertex="1" parent="tZTZFI5KvzDKFGGIXcyF-1">
          <mxGeometry x="-390" y="-533.125" width="68.75" height="94.55357142857167" as="geometry" />
        </mxCell>
        <mxCell id="tZTZFI5KvzDKFGGIXcyF-9" value="" style="shape=stencil(lZPNbsMgEISfhusIWGCXc5q+R6Q4tVXXjhz37+1ri0NjLCNxW+Abdgcxik6P9nJvlNWPeRrfm+/uOreKXpS13dA2UzcvlaKzotNtnJq3afwcrml9v6zkWn2MX+sNP0mnofUqsvo323hNeN8NJZzguQI3GmxqeIaECt5acM08ZGB9Be80Ah3zDoY3vNdwhfsFRFs+QuwxbwLCtkEQcKGB9bkDDuB4LCDKRxIHkoJlk48kEVx4I797pEhFD2FnOga4QgdmsGwFAil8O9mZNrqcg6fzY8lS/Mfu1vV9Su3zeR7TZStFnM5/);fillColor=none;strokeColor=#FFFFFF;" vertex="1" parent="tZTZFI5KvzDKFGGIXcyF-1">
          <mxGeometry x="-335" y="-495" width="15" height="140" as="geometry" />
        </mxCell>
        <mxCell id="tZTZFI5KvzDKFGGIXcyF-10" value="" style="shape=stencil(pZbbTsMwDIafpre/EjtO4msO74HEYBVjQ2Oc3p6MqmxuN6OJuyz1N8e/D0nHV6/Lu5dFR+F1t908LT76+92y4+uOqF8vF9t+11Yd33R89bDZLh63m7f1/fD75W5vuV89b973//A5cEkQyp6i8DXsBITws3E72K/6tWsvEHXsCZWMfUwQOQ9wRWYDUEKpDiCgaAAO4xlPAwGqFlDUfB6gjJINkBTZiYEIkqxIipTOA7GCbQy5QtgBMjQYoLQdcgBBskFXBnnA7EhVIdEJWsBiAGUUB2BGtTFohni1R6CJh1YsDiCEaGOIwS/vzOBqXSjYAUpTMV0SRJM9hqlMwZFJA6L1UOsY1mkggW2L1jg24WmgINqgS0L0qu+g4m+9trlwGSECdVpifqhU3MGhBJ10aYA4bV1l7JjfOZBAzuAoBcl6IB2lPl1NBdnWX2uS6gCSwTbXxO7wm4/jBoSLpmUbVuwA87b+w8N8NP0RQ4yj6kcqRS8PCBORipu3ltXJjeKnbXZlcURy7NvXyQXEEMd+1grc0u4U6txeEf9l3xaHB8FDv1oN74nj79MHRNsaHh988w0=);fillColor=none;strokeColor=#FFFFFF;" vertex="1" parent="tZTZFI5KvzDKFGGIXcyF-1">
          <mxGeometry x="-225" y="-525" width="44.375" height="89.375" as="geometry" />
        </mxCell>
        <mxCell id="tZTZFI5KvzDKFGGIXcyF-11" value="" style="shape=stencil(lZXbbsIwDIafpre/HDvHa8beA4kyqjGKCju9/VJVZaRs3nKXJvnq0++4kdV5vzm1DdP5MvTP7Xu3vewbeWiYu+O+HbpLXjWybmS164f2aehfj9vp+7QZb46rl/5t/MPHxBkiEI0Y0+e0dd14nIBDd9QBA8dVAINjFeAQfRUQ4VxdDIxYF4QJSHU2WJCkihADqrMhEaGOsB5GIVKCD2UxBE6pRgbIFIAnWEVRKYKkBPxs82fAQ2IBBAYpikp2Pr4CAWwUgBBSKSgDq1iIOYmlhehgkgIQ3MJChFeyFOwyrSm7pBQuJzGULiVBUPTnIuICcDpA8L4EAqz9HbAMs4ghN6qSVpE7lxKs4hJnaXDZpvTHe5Z/aOoImZ+KfzqVZq3dRK29Z24pjXyfFS2ZueVvyuAVf+6egLGhlIDv7y91kRffA2bXHQ7TfLo9Xw6kvDUNM1l/AQ==);fillColor=none;strokeColor=#FFFFFF;" vertex="1" parent="tZTZFI5KvzDKFGGIXcyF-1">
          <mxGeometry x="-385" y="-470" width="190" height="219.375" as="geometry" />
        </mxCell>
        <mxCell id="tZTZFI5KvzDKFGGIXcyF-12" value="" style="shape=stencil(lVZdU+MwDPw1edXYlj+kZw7+BzOUa4Zey5TCHf8e5TItrVW2kzcn8UZeaVfWwHdv68fX1ZDC22G/e1n9HZ8O64F/DSmN2/VqPx5sNfD9wHfPu/3q9373vn2an18fp53T6s/uY/rDvxkXKIQJlMLn/KIlKvH/m4d5/2bcnu23r4v269L/Lz5QpqpLAJwoLgMosSwB5EqlLgEUpsiLAM2VIRKXnwHVpbVaZUCEGimVS0AmxYCOdLEIFR6J4yUgkAggLZTzBSBbzAQApY8w1R4cqTgOpndBlW69lqLJERwpe/FRDUB79ZiS04mIM9jvGJwKf909TkiBCqiBuS10GSIFfJNXBQnQadTezUoK+EaniRsFiO1Y0BNAoeqiy1CqxDhCB7ihuisAgd70HDKToAjeOUoNRXAtr5j7G2zbehnB7J0YAFLPoZZjGq4DnJlboIik6ki3DLVn3um81pQK4MDuSMJUEUB790ijhttFlyWNMK129XRtWzNFQLq4i0ErZQUA7tOqcox5HeBamCplQLo6LcWAu1h1hbiJ8H1GSEBiTTudI7RRAPJrrtZWiQZamfjERnj5iOsbYhxA6dTd6VJIQd9Q1+0lUUYAJ78bFrKsczf5mPzQPOmHMezqMyX8OFzZ4ns+fh43m3m8Pv/ez9P2ap7F+f4L);fillColor=none;strokeColor=#FFFFFF;" vertex="1" parent="tZTZFI5KvzDKFGGIXcyF-1">
          <mxGeometry x="-100" y="-552.5" width="200" height="106.875" as="geometry" />
        </mxCell>
        <mxCell id="tZTZFI5KvzDKFGGIXcyF-13" value="" style="shape=stencil(lVbLbgIxDPyavVpJnDjJmbb/gQSUVSmLFvr6+3q1otSBTsUtLDNOxh476Xhx3C4P6y6442kcXtYf/eq07fihC6Hfb9djf9JVx48dLzbDuH4eh7f9av59WE7IafU6vE8RPmeeI+cmUnBfzYenGb7r9wjuKcU74IlKuic634kvFAXhUzZ4PU8FeE8xGjxHckBuILbniYFK+RvPlG38hNOZzurOeMHVyhStXsmUAL5SLAafcf69p9wQKgUGBFVcDaEwCdohUQqWgCX4TMHmtGrVQQ3UMmyPVANJBQSVmCyBKWRIKNzu4AOwkaNofVQ0hIcEadIq5EFabxC0lKBwSqhNpYUq0uCp2DpkjwmRvCWoWRmJzm23CfYSexJvCR5miaW1d6okQMPU7qEloH6I2nF8zw5JyFmCjgAG9hY1c2xFoxkjhXyTVjzEcqBqvSQRasiZXFMH7KXiruYeztI0VGwdMtag7RKtBrU3ypI2JNvRWnAdqpqvIeC7RIeKWPPp5ENzqaZ2alRs75rJN3PpnyOV823wQ9AQSPSVvS8hbo9Kd32lu/aO08XlNbPpd7v5MfT7//b1o5/mlxM/fgM=);fillColor=none;strokeColor=#FFFFFF;" vertex="1" parent="tZTZFI5KvzDKFGGIXcyF-1">
          <mxGeometry x="-1020" y="-90" width="217.5" height="325" as="geometry" />
        </mxCell>
        <mxCell id="tZTZFI5KvzDKFGGIXcyF-14" value="" style="shape=stencil(lZVLcoMwDIZPw1ZjW36u0/QemQlpmKYhQ0gft68o4zYyRJSdMfosS/olV7i5HneXujLq2nfta/3R7PtjhU+VMc35WHdNT6sKtxVuDm1Xv3Tt7bwfvy+7wXJYvbXvwwmfI6dAqQEy6mvcMBGs+dl5Hu1PzZnZR7vGXitwYQ1gAvhVAAbQeg3gFHhcA3gL2q0BQgD0HAgQ02MgJvCGAx5Q8JA8xMIDgo9SHaaV/t2Zd0Ex8jRpB0EIImmIPAitwQl3igjIPVDegpBWzMdlewTthbqZnPRsT2JEQRi61KqcIatB8/PleNEAcns5ofTb8vtok7U+DygIhVDlCDQlfNL+yQmAA8VDwAUAy4FhFwHD29ktTJhJlb3PPh8BhYyCzT7/6SEupHUSdFzwQELgrRPlgUGFSxxIsrZJmoprKZk8BucBW8aQ5BgG5fBuTrK8cdL+SS4cTXpbBC1niRq0vFLKgp8HHCQuvru5OU/QDdQCQYu/5/fQnE7j633/v3yuaWt86nH7DQ==);fillColor=none;strokeColor=#FFFFFF;" vertex="1" parent="tZTZFI5KvzDKFGGIXcyF-1">
          <mxGeometry x="-680" y="146.25" width="198.75" height="118.75" as="geometry" />
        </mxCell>
        <mxCell id="tZTZFI5KvzDKFGGIXcyF-15" value="" style="shape=stencil(lZXLcsIwDEW/Jts7suWHvKb0P5ghlEwpYYC+/r5OM6F1IILsHOdItqUrqeLFabs61JWl0/nYvtafzfq8rfipsrbZb+tjc86ripcVLzbtsX45tu/7df99WHVkt3prPzoPX70dgagzsvTdb3AEpd+d557fNXuVF4ifwTuCDXN4RqI5fADP8e8Jac57fUBS3xul4INFMtO8gQ8ln+DdNG/BruBjgNhpnmG44MXBKPfh4bYDn/KLeJp3CKnkA0jhPVws+TS86CYfYH3BG7qk5DGDJAgyh3eIc/yLgBT/cQjHJWECowgoQsoEhHyiEtAcvlJw3oGV+xuDaMuKsYOL2wYOUkqOswulZIwgliHKqvWKRrOIbHmlfKaPikhprKKcY03UAjsKkhqj3EOk5Bms+PdXVWDUppJ7gqcRz0qAIg3HDzwhKE0uxnGX0GtG7Fh0d/ireOp8MnBz/CceK+gOH4aZ9Vh8UkSyI160EqCrMaAn7IaBRSiqPi/+ZvKm2e36kf7//3iG561+/vPyBw==);fillColor=none;strokeColor=#FFFFFF;" vertex="1" parent="tZTZFI5KvzDKFGGIXcyF-1">
          <mxGeometry x="-355" y="160" width="80" height="94.375" as="geometry" />
        </mxCell>
        <mxCell id="tZTZFI5KvzDKFGGIXcyF-16" value="" style="shape=stencil(lVbZUsMwDPyavO5Ils9njv9ghkIzlJYp5fp7FEIhdoKYvDmx1qPVrmR3cvG8vXnadI6eT8fDw+atvz1tO7nsnOv3282xP+mqk6tOLu4Ox8398fCyvx2/n26GyGH1eHgdTngfcQSiAeToY/zhA3L4+nM9xu/6/SQ+IMQ18azbsgYgAlkF8AwOqygI4ipADIirUkpxoUq+/A3IEb4BeKT0N6AIUsNB6+YMQIJvhCYkI6VS4HMFkATOhtI085I4k3XJKDVrF5HYAERIzVr9G4ycCiOmCsAe3htCqE6uAmTEaCidQE2VUAzdYoarraQqGLKF3HbDT5GXmyGh1Pk7sJGPZFAdH5ENvq6cj5sUlAwFHCPXBdIKscGAY9vOOhGCQYEdQuNsf/b6sikgdUZB+9uIT3ClLlFAMuJ1t5YseYhBYBafGcWaLm0+OUEMzZhaT2tbiNEEPJt3xcMZLlWTNcNl6FSj84Vazjqfvu+JZV/TLKV8dvpyURnka0BBNEhHQqkBk4G2rANBeB0itzfPf4jsUWgN7/nEU4B5MfjzNTCRgq0hPLvR9Yjar7r4fW/c9bvd+FyZ7rfvE/01vm3k6hM=);fillColor=none;strokeColor=#FFFFFF;" vertex="1" parent="tZTZFI5KvzDKFGGIXcyF-1">
          <mxGeometry x="-110" y="140.625" width="120" height="173.125" as="geometry" />
        </mxCell>
        <mxCell id="tZTZFI5KvzDKFGGIXcyF-17" value="" style="shape=stencil(lVfLctswDPwaXTEgwec5Tf8jM3FqT10747ivvy9cjZQQlLflTYaxIgXsLsFJHt72T6+7yfPb9XL+uvt5eL7uJ/k0eX847XeXw1WfJnmc5OHlfNl9uZy/n57n369Pt8zb07fzj9sbfs04FynXG8rz7zniM/n8N/J5BhwPJwyo5OsIQBJJGgGEQG4MUMi5EUAMVP0IIHlyY4BCNYwAciA/BijEAgESG0BhEgaAQCG3K1RcJVnatAISFUQNpmoAjjxoXKGcbRtKuZ+fKJa2zwJrFEgMkfT9oERKAkNtTzXez2cKodWOUAD7Z2Ju8rWJDrzfkfi2xZRBOQOVNl11BqRfKbUEcri7HUOZMpCx1sJHky+gOOLIBZPPoFmi7HUD7w+ZijPf64AiY1dOD500MUUZKH8Kdv9pWXA7P1Nt2V+pAPKkSrmtpwrag4apWNkQIi+R/wTcFIEATK79BCVJAVtSlw2mB9iCUiLfNkGrBLvQmZzykMGWYl0s7YNJRMC7nkciWMaVotlSgJ0OaxFXQFy4si2dQqk1Ij3DM9CC7ljaskqGTq1Oxa21q1wZsFuJkIoFZDS4dPQOqwC3AR01gqOEVgjEZgW/0HEb4CkbA5aF8PcAvlgAHCvENk5nqYwO/bR84gqIUKK+07T6piBAtoem8jeBKimZjYAiNtb3Nq2AuJBlW3HdORuxVcZi6Z3W0WHbNUbnQbXK2q6QsfPlrqz/mAeLs8ORRtB5UqI9rzTi0Qqda2gEHSiVbZU0UoHzVd8dcVhANVgTqJEYAfLy9wpIVNGQVOwUUyse5Lmf8thOMvrwfoN7ORyP8wXw4//2xqeh+bYoj38A);fillColor=none;strokeColor=#FFFFFF;" vertex="1" parent="tZTZFI5KvzDKFGGIXcyF-1">
          <mxGeometry x="-1592.5" y="-1080" width="142.5" height="165" as="geometry" />
        </mxCell>
        <mxCell id="tZTZFI5KvzDKFGGIXcyF-18" value="" style="shape=stencil(rVbLjsIwDPyaXq0kzstnlv0PJMpSLQsI2Nffb1DVQpIyqNLeSvEk9ng8dcOL83Z1bBujzpfT4b397taXbcMvjTHdftueukt6anjZ8GJzOLVvp8Pnft3/Pq6ukdenj8PX9YSfHucUKXVFGfXbvxlfvPbxu27/JD6aOfGaJMyJZ4qz4i3JrHw8BXy+M1l8JI/ON6RiXq8i6wHAkg45wBBrAAhkJAckitxjgNdDAiPADUlOAxx5zgEeiiKoIeM7AGIpuJLVBEBti4pMcUOigQHAEsdZN0RytgSgPogmH0pavQAAU3A5wELtiaNY9IGHJKcBgWwxbAY2TiLZomisVhGyOa0RsqpVNW8RZvQ/gJkpaQ3nYQphIU1TCIHimEAkZ9JgrCcQ/EQeVfOshs6R5CG5c7gn8qgE6ARSK2kCcjPzYRjcR1On8yFKXoIA0ZfuF3HRtdVEnFIwZdGCp85zaTWCa3BMOjeCRDSqwfJgjiNA4A08fkJuRoAXAeNK9ckThQfSeauTvJD9JSsSW1aNPN+TcXNorVlleL4mlytJFCygXh2wldVG5mA+9flY2Wrozzg6Qhr5Hqmc/4C/iNXqkyYj3wLSw20R3XS7Xb/H3v9fLq7pVb/08vIP);fillColor=none;strokeColor=#FFFFFF;" vertex="1" parent="tZTZFI5KvzDKFGGIXcyF-1">
          <mxGeometry x="-1470" y="-995" width="120" height="203.125" as="geometry" />
        </mxCell>
        <mxCell id="tZTZFI5KvzDKFGGIXcyF-19" value="" style="shape=stencil(lZbbbsMgDIafJrcW+IDheof3mLR2jda1U9ed3n5EUbuZrE5zR6m/gPl/Gzq6eds8vK46DG/Hw/559dk/Hjcd3XaI/W6zOvTHOurorqOb9f6wejrs33eP4+/XhyFyGL3sP4YvfI0cMmAYKAzf40yAME7cj/HbfufGJyhefADNJj4KRL0MxAKEBkAFKQ6QIScDEEFCB1DQYgBmyOQACZQMIAmCBwgku6WkgLwE0JmkJ1vKCTC6x1osUAjiIqGLAjsrUIBkgRh8L1GBKHaJOuMcEyskq1xJIHIZEAVqkohA+TJQdSpqz5WBHWDQyfp7RrksEGzSqbjuqzvmxkzRlbrIxK7obqkK21QQy+mg/zfTr7Dnmsunorqa8Kt0uqlqMK9xFG5rqLYm9VaYHGz1vGe/rBCt/RDdksgRstUao+tXFWC2QHCVSOfueyUgGSgtAbi6E5fkwNWdtiKQTjP/twEEbZKWhXfQ3BUx6ZYzXoqhvYRm3JraoiaF4CyArTE4gDjfr7dotPF0alRXxvuNclKdVXZ2mtLk+xLdWpvkK+0roA5+3yjrfrsdnzh//2/fNHVqfA/R3Q8=);fillColor=none;strokeColor=#FFFFFF;" vertex="1" parent="tZTZFI5KvzDKFGGIXcyF-1">
          <mxGeometry x="-1294.166666666667" y="-985" width="58.54166666666629" height="72.5" as="geometry" />
        </mxCell>
        <mxCell id="tZTZFI5KvzDKFGGIXcyF-20" value="" style="shape=stencil(lVXRbsMgDPwaXhHgGMhz1/1HpaYLWpZUaba1fz8iVlqFienewNwZ+2ywoN2lP5w7YdRlmaf37jscl17QizAmjH03hyWuBO0F7U7T3L3N0+d4TPvzYUWuq4/pa/VwTTwllVpJRt02htcEH8JYg5MkAuAt5l030rQI3krDAD5aLBK+YSz+mC95RE2SGomHwHzJS4fgG435bwj0z5j+jZUe0bMB82Ww+1lj8TCoD4P6sMf6x9brm7sr4+v9r43kzQX1Auh8fCe4+gt4PMBMcPc7/ySQ24bk6zXjQiRff2S2SLqtd5ErcmjrSfv8yWaCldZVZFXlx/tPIUrGk+mXEhePMXIKw5Cm0PP5duxEUxpZtP8B);fillColor=none;strokeColor=#FFFFFF;" vertex="1" parent="tZTZFI5KvzDKFGGIXcyF-1">
          <mxGeometry x="-1225" y="-965" width="10" height="100" as="geometry" />
        </mxCell>
        <mxCell id="tZTZFI5KvzDKFGGIXcyF-21" value="" style="shape=stencil(lVXLcsIwDPyaXHdk2fHjTOl/MEMomVLCBOjj7+tMxhSHVMQ3R9m1pfVKrvTqvN+cmorpfOm79+ar3V72lX6pmNvjvunbS1xVel3p1a7rm7e+ux634/dpMyCH1Uf3OezwPfIIRAOJ6WcMGA81Rl5H/KE9SvjawNcFeMtgX4L30CX7O4IPJXiH4XMx3hfm7x20KcAHhlEleAsuuS9Ft9DCAzyclvDO5HiDIBQc5VO5QBYkCKphfX5hJkVm8TV8jo+GIyF/DwolDaBU2i4RtIESElIGLq84asaCpVV0fF6CIiihhKhRnafEKTCPD8liCS9bQls4mycEdv/jTRSE8yEBssKVcXLMwoKtekjIwggn2JCG1E0hAxLuwPmp7bSCFQi+Bk98RKiFRg4Ekxf9xHjhUdUaTiK4pPrCVoidPvHRk+EbAjg/4Ulz3g2fGyPASc3wyPDxxRGEnWFErbXU0jMMearOMaZjMi7+Ht1deziMb/b9/+kjHUPjA6/Xvw==);fillColor=none;strokeColor=#FFFFFF;" vertex="1" parent="tZTZFI5KvzDKFGGIXcyF-1">
          <mxGeometry x="-1150" y="-998.75" width="85" height="49.375" as="geometry" />
        </mxCell>
        <mxCell id="tZTZFI5KvzDKFGGIXcyF-22" value="" style="shape=stencil(lZTdDoMgDIWfhtsGWgt4vbn3MNFNMqeLur+3n4aLidlYuCv0fLSnSRG0G5vyWguU4zT05/rhqqkRtBeIrmvqwU1zJKgQtDv2Q30a+ltX+fO1XJRLdOnvywtPz0mQcoFQvjYXBy9vXbeSM1ibIFcSOE/Qz2llUvSc1j5lwDpBnxFQ6FchcGw+CKgC4NPiV0ArMGFHZKIVdA6WA4DjHoyGLJypjnuwCBRWMHEPVm892LgHm4MJp6Rk3ESOoDmNyLZz+ksYkDqNsMCURKzyv5E5+Kzr0bWt3/Z1frve85X/Gqh4Aw==);fillColor=none;strokeColor=#FFFFFF;" vertex="1" parent="tZTZFI5KvzDKFGGIXcyF-1">
          <mxGeometry x="-905" y="-1030" width="85" height="5" as="geometry" />
        </mxCell>
        <mxCell id="6q-CFF4XW0L_3gYF559m-0" value="" style="whiteSpace=wrap;html=1;aspect=fixed;" vertex="1" parent="tZTZFI5KvzDKFGGIXcyF-1">
          <mxGeometry x="-1710" y="-1090" width="2540" height="2540" as="geometry" />
        </mxCell>
        <mxCell id="6q-CFF4XW0L_3gYF559m-1" value="" style="rounded=0;whiteSpace=wrap;html=1;fillColor=#0050ef;fontColor=#ffffff;strokeColor=#001DBC;" vertex="1" parent="tZTZFI5KvzDKFGGIXcyF-1">
          <mxGeometry x="-1710" y="-1092.5" width="2540" height="190" as="geometry" />
        </mxCell>
        <mxCell id="6q-CFF4XW0L_3gYF559m-2" value="" style="rounded=0;whiteSpace=wrap;html=1;fillColor=#0050ef;fontColor=#ffffff;strokeColor=#001DBC;" vertex="1" parent="tZTZFI5KvzDKFGGIXcyF-1">
          <mxGeometry x="-1700" y="1250" width="2550" height="190" as="geometry" />
        </mxCell>
        <mxCell id="6q-CFF4XW0L_3gYF559m-3" value="Text" style="text;html=1;resizable=0;autosize=1;align=center;verticalAlign=middle;points=[];fillColor=none;strokeColor=none;rounded=0;" vertex="1" parent="tZTZFI5KvzDKFGGIXcyF-1">
          <mxGeometry x="30" y="320" width="40" height="20" as="geometry" />
        </mxCell>
        <mxCell id="6q-CFF4XW0L_3gYF559m-4" value="" style="shape=stencil(lZTdboMwDIWfhtujxE6c5Lrr3qNS6YrGoKLd39svCLWb2Wppd8Hki88hBze8OR93p7Yhd75M43P73u0vx4YfGqJuOLZTd6mrhrcNbw7j1D5N4+uwX55Pu3nnvHoZ3+YTPhbOOwfnZozc51K6FR4XoO8GG/DI8V9AROH7QCmQVQOCTwaQUUQDAjI8lIRCCiBCMDwUQWQNFFtShA8KYIH3BsAI2nQgxGIAHqw9hAwxOuSMqCVFRgkGEBF0h5jBxsVlD4oKkBoNQ1ISJC1Jgg14+KyBhEz3AeG16XoEG9GIEeQ1UCuG6SBrSalcr/JPgBO8/kq5ipT7AGWEpIGEaHSof3AoCigOxUirdxAtqeZXsmH6Gv7bfjt7v0eGW0+ZuvieUYeu75cR9/P9eqbV0jIPefsF);fillColor=none;strokeColor=#FFFFFF;direction=south;" vertex="1" parent="tZTZFI5KvzDKFGGIXcyF-1">
          <mxGeometry x="-1115" y="-265" width="270" height="180" as="geometry" />
        </mxCell>
        <mxCell id="6q-CFF4XW0L_3gYF559m-5" value="" style="shape=stencil(lZTbboMwDIafJre/EjvH6657j0qlA42VirLT2y+ISW2gy+Q7Ez47tmP/infX9nBpFOnrNA6vzWd3nFrFT4qoO7fN2E3ZUrxXvDsNY/MyDu/n4/J9OczkbL0NH3OEr8VPQ+vZifT36uB5wfvufIcbUBTgHsZJohsEkvAW5CV8RJDkQwwniU8RPgl4ZlgRH+Al+ViDyBLewQcJn+Al4+AstJHwUdYfzzBWwgeEMr4Hub/5QLBlfENwlQuCRygf7DaCDx2igS4zIlctITqYcoHzkNRSirmnZUqu3qRkwOXS+HrRiddbFuo1pM3Y5TbU3iHlPShvyEn+hnjskKBXD6f/kQq9UcatSzZuunrq+n6R5fv/ax3OR4uG8/4H);fillColor=none;strokeColor=#FFFFFF;" vertex="1" parent="tZTZFI5KvzDKFGGIXcyF-1">
          <mxGeometry x="-1295" y="-605" width="390" height="10" as="geometry" />
        </mxCell>
        <mxCell id="6q-CFF4XW0L_3gYF559m-6" value="" style="shape=stencil(lVXLbsMgEPwarivY5bGc0/Q/IsWprbp25Dh9/H2xqNLU227lG8YzzM4ygKHdpT2cG4P2Mk/jc/PWHefW0INB7Ia2mbq5jAztDe1O49Q8TeN1ONbv82FBLqOX8XVZ4b3ynLVg7UJD+1GnbhOPldB3w3+E6DcRCHzcREgQ8yZCBlYUcoLwE+8IkmI6h7WAY7CkEERFiMBKl1goLKYVQhIeCCErJSW5DQky/02IuFbwpJoOwoMvXVIUvPAQSpc0gvAQ9GiQKKm4QiUaJBRiBFZMo1AojY5JIch0ewioxFsqMDilJCcU2IFXuiS2gT1EpSJREN9W+N3yev1yPJySbXmcEchtwXvwyhZIfAQXtuATkBIiiWdISj8lPquJEPi7G/CLUAbfV/6p6/v6Ytz/Xz8RZao+L7T/BA==);fillColor=none;strokeColor=#FFFFFF;" vertex="1" parent="tZTZFI5KvzDKFGGIXcyF-1">
          <mxGeometry x="-1115" y="-590" width="25" height="260" as="geometry" />
        </mxCell>
        <mxCell id="6q-CFF4XW0L_3gYF559m-7" value="" style="shape=stencil(lZXbbsIwDIafpre/Ers5+Jpt74FEGdUYRcBOb79UVRlJwVPu3KSfneT3oeHVebc+dg2Z8+U0vHVf/eaya/ipIeoPu+7UX5LV8HPDq+1w6l5Pw8dhM30f1+Ofo/U+fI4evifOwJgRIvMzLVhzXXqZgH1/uAEIFKsAa0A+I2KA0wABSQYEpx+JESgDfERwjwE2CCEDnICjAgTEPILTL922aNsMaA08PwbcQggmRKsALUz+rCTwogCh1IE8nFeA5C+/NOk6eAvXVgGMKFWAR+uqACl1+AcIBF8VIeVmrANkIRzPh7wLRFoIZxGVbI3pAMWlDVjJpVSQnOtg9QKKAsc5EGCV5BNbCmedWg9CkAK4Jvx9YFFxltQ2Iw6BqwCPIFVAKHMp9UJRlJY4+5sBvS2JwOYBIlh71CRb3vc8SJH5prXPQNn2kvE3Wrb9fj9Nptv9chSlpWmM8fMv);fillColor=none;strokeColor=#FFFFFF;" vertex="1" parent="tZTZFI5KvzDKFGGIXcyF-1">
          <mxGeometry x="-1170" y="-340" width="292.5" height="40" as="geometry" />
        </mxCell>
        <mxCell id="6q-CFF4XW0L_3gYF559m-8" value="" style="shape=stencil(lVfZctswDPwav2JIguDxnKb/kZk4taeunXGcHn9fuBqqBSmt0jdZxoo4Fgtwxw9vh6fX/S64t9v18nX/4/h8O+z40y6E4/mwvx5v+rTjxx0/vFyu+y/Xy/v5efr9+nS3vD99u3y/f+HnhHPk3B0U3K/pRcoU0p83nyf70/GM7LOnWtbtPUmw9pl8XrdnCmLsi34/rNtH8t7aR3Lg+0LZ+l8KOVm312wUY18DubhuX6gkay/kGeTHtb9nQKZcISB3J1QSULER4N1cxTVEjP0RHhShUqzWPlEELmWqvk9qBCRKxDZHJVEGSY2ULYlypQSKzORthpTUCZK6dk0TiEHNHFXrjzAJINFgHzdIRGJJypjUQ7zsG20/1jRakQriHZpAT4zAHx8odQBHBTE0k7OM87VxahGgKSqxB0SgExphyP9zArshSTgGjlRsF4RAgqSxULBBa2EC0kbfunAGFGIEiMQ2Bg7tzTIg9fLOqQnmMqC0xp2prXkDaRVHqQPgXpDQcjIDsD5qL0bbPRvdKZGidUmUjiBoEXK2DlKhfimArUtJWxzUQYYO3QZ0J2y71McgTWU/mKXtOhQbQ8RTQUYZ25j92l/WJe1yj8g3cMkX8ogaI2CjDgP51COgrGMZApxsMuwvKkoop7UXJbwqpEG5591h2V6odAlqs33ZvvaKhOPNyomORFQAJfIg87qboM2l9qzeKHBRznWTSqiCiIv069rGHNEFNnVzRFpRlre1YSzo7BLgUmVKNkksFIFLuvN2WzzXpjfLgGGOaO+jtV+X5Ghd0lHkEKAMxCgtqjVAtC4Jbp06jDaZyfhRACbrAgCrha7trls8c0v0GsAPkwr1vwLY1iHphQatzm68cfYIffh7XX05nk7Tbfff//vrrb6arsb8+Bs=);fillColor=none;strokeColor=#FFFFFF;" vertex="1" parent="tZTZFI5KvzDKFGGIXcyF-1">
          <mxGeometry x="-715" y="-510" width="197.5" height="141.25" as="geometry" />
        </mxCell>
        <mxCell id="6q-CFF4XW0L_3gYF559m-9" value="" style="shape=stencil(lVbLcsIwDPyaXDW2/JLPtP0PZgglUwoM0NffV2mmLY7Kdrg5jteWtLuyu7A4bZaHvmN3Oh/3T/3bsDpvunDXMQ+7TX8czjrqwn0XFuv9sX887l92q+n7sBxXjqPn/eu4w/uE85FSGlHsPqaZGojd18zDBNgOOwyIVDMAZHKuBQjFeh3ATJIbgHfue4+/EZlCi6iVxF8HBE/Cc4BPAFDJ1RZQyJfrgFiIyy11TSYHyZRAmXKi2BJRhDIgojCV0ABypQiqJG7OXBKSAAAmhyjEoKzV8BAKZQEAkzSrmBgAhLy0Yqowhwut/SCUuZuOKFTBCdU4KFAFUhKbAgUQj9JWfbMeu8fqAu+fA+V4Q/zJ7C9Q2NHErwQIEIV18z8cs8lAKfOo6Rk3h0QOqciEFBkWyRyQHHEEOc8z0P4hwGkmnqxdFmRsOMhCDnBgTDOqCvQWu16vCSA6ux43OxO/uiKDepr6iIe3mtU0UwaCMJ4XbSrABEYPur4ifk2BJFIGBHijIEmwbVkPSIHN3XKmnSwBD2iRuA2pOkqIBHvJetgp2F7j81tZB79vpfWw3U5Prcv/87eVTk3vsnD/CQ==);fillColor=none;strokeColor=#FFFFFF;" vertex="1" parent="tZTZFI5KvzDKFGGIXcyF-1">
          <mxGeometry x="-390" y="-533.125" width="68.75" height="94.55357142857167" as="geometry" />
        </mxCell>
        <mxCell id="6q-CFF4XW0L_3gYF559m-10" value="" style="shape=stencil(lZPNbsMgEISfhusIWGCXc5q+R6Q4tVXXjhz37+1ri0NjLCNxW+Abdgcxik6P9nJvlNWPeRrfm+/uOreKXpS13dA2UzcvlaKzotNtnJq3afwcrml9v6zkWn2MX+sNP0mnofUqsvo323hNeN8NJZzguQI3GmxqeIaECt5acM08ZGB9Be80Ah3zDoY3vNdwhfsFRFs+QuwxbwLCtkEQcKGB9bkDDuB4LCDKRxIHkoJlk48kEVx4I797pEhFD2FnOga4QgdmsGwFAil8O9mZNrqcg6fzY8lS/Mfu1vV9Su3zeR7TZStFnM5/);fillColor=none;strokeColor=#FFFFFF;" vertex="1" parent="tZTZFI5KvzDKFGGIXcyF-1">
          <mxGeometry x="-335" y="-495" width="15" height="140" as="geometry" />
        </mxCell>
        <mxCell id="6q-CFF4XW0L_3gYF559m-11" value="" style="shape=stencil(pZbbTsMwDIafpre/EjtO4msO74HEYBVjQ2Oc3p6MqmxuN6OJuyz1N8e/D0nHV6/Lu5dFR+F1t908LT76+92y4+uOqF8vF9t+11Yd33R89bDZLh63m7f1/fD75W5vuV89b973//A5cEkQyp6i8DXsBITws3E72K/6tWsvEHXsCZWMfUwQOQ9wRWYDUEKpDiCgaAAO4xlPAwGqFlDUfB6gjJINkBTZiYEIkqxIipTOA7GCbQy5QtgBMjQYoLQdcgBBskFXBnnA7EhVIdEJWsBiAGUUB2BGtTFohni1R6CJh1YsDiCEaGOIwS/vzOBqXSjYAUpTMV0SRJM9hqlMwZFJA6L1UOsY1mkggW2L1jg24WmgINqgS0L0qu+g4m+9trlwGSECdVpifqhU3MGhBJ10aYA4bV1l7JjfOZBAzuAoBcl6IB2lPl1NBdnWX2uS6gCSwTbXxO7wm4/jBoSLpmUbVuwA87b+w8N8NP0RQ4yj6kcqRS8PCBORipu3ltXJjeKnbXZlcURy7NvXyQXEEMd+1grc0u4U6txeEf9l3xaHB8FDv1oN74nj79MHRNsaHh988w0=);fillColor=none;strokeColor=#FFFFFF;" vertex="1" parent="tZTZFI5KvzDKFGGIXcyF-1">
          <mxGeometry x="-225" y="-525" width="44.375" height="89.375" as="geometry" />
        </mxCell>
        <mxCell id="6q-CFF4XW0L_3gYF559m-12" value="" style="shape=stencil(lZXbbsIwDIafpre/HDvHa8beA4kyqjGKCju9/VJVZaRs3nKXJvnq0++4kdV5vzm1DdP5MvTP7Xu3vewbeWiYu+O+HbpLXjWybmS164f2aehfj9vp+7QZb46rl/5t/MPHxBkiEI0Y0+e0dd14nIBDd9QBA8dVAINjFeAQfRUQ4VxdDIxYF4QJSHU2WJCkihADqrMhEaGOsB5GIVKCD2UxBE6pRgbIFIAnWEVRKYKkBPxs82fAQ2IBBAYpikp2Pr4CAWwUgBBSKSgDq1iIOYmlhehgkgIQ3MJChFeyFOwyrSm7pBQuJzGULiVBUPTnIuICcDpA8L4EAqz9HbAMs4ghN6qSVpE7lxKs4hJnaXDZpvTHe5Z/aOoImZ+KfzqVZq3dRK29Z24pjXyfFS2ZueVvyuAVf+6egLGhlIDv7y91kRffA2bXHQ7TfLo9Xw6kvDUNM1l/AQ==);fillColor=none;strokeColor=#FFFFFF;" vertex="1" parent="tZTZFI5KvzDKFGGIXcyF-1">
          <mxGeometry x="-385" y="-470" width="190" height="219.375" as="geometry" />
        </mxCell>
        <mxCell id="6q-CFF4XW0L_3gYF559m-13" value="" style="shape=stencil(lVZdU+MwDPw1edXYlj+kZw7+BzOUa4Zey5TCHf8e5TItrVW2kzcn8UZeaVfWwHdv68fX1ZDC22G/e1n9HZ8O64F/DSmN2/VqPx5sNfD9wHfPu/3q9373vn2an18fp53T6s/uY/rDvxkXKIQJlMLn/KIlKvH/m4d5/2bcnu23r4v269L/Lz5QpqpLAJwoLgMosSwB5EqlLgEUpsiLAM2VIRKXnwHVpbVaZUCEGimVS0AmxYCOdLEIFR6J4yUgkAggLZTzBSBbzAQApY8w1R4cqTgOpndBlW69lqLJERwpe/FRDUB79ZiS04mIM9jvGJwKf909TkiBCqiBuS10GSIFfJNXBQnQadTezUoK+EaniRsFiO1Y0BNAoeqiy1CqxDhCB7ihuisAgd70HDKToAjeOUoNRXAtr5j7G2zbehnB7J0YAFLPoZZjGq4DnJlboIik6ki3DLVn3um81pQK4MDuSMJUEUB790ijhttFlyWNMK129XRtWzNFQLq4i0ErZQUA7tOqcox5HeBamCplQLo6LcWAu1h1hbiJ8H1GSEBiTTudI7RRAPJrrtZWiQZamfjERnj5iOsbYhxA6dTd6VJIQd9Q1+0lUUYAJ78bFrKsczf5mPzQPOmHMezqMyX8OFzZ4ns+fh43m3m8Pv/ez9P2ap7F+f4L);fillColor=none;strokeColor=#FFFFFF;" vertex="1" parent="tZTZFI5KvzDKFGGIXcyF-1">
          <mxGeometry x="-100" y="-552.5" width="200" height="106.875" as="geometry" />
        </mxCell>
        <mxCell id="6q-CFF4XW0L_3gYF559m-14" value="" style="shape=stencil(lVbLbgIxDPyavVpJnDjJmbb/gQSUVSmLFvr6+3q1otSBTsUtLDNOxh476Xhx3C4P6y6442kcXtYf/eq07fihC6Hfb9djf9JVx48dLzbDuH4eh7f9av59WE7IafU6vE8RPmeeI+cmUnBfzYenGb7r9wjuKcU74IlKuic634kvFAXhUzZ4PU8FeE8xGjxHckBuILbniYFK+RvPlG38hNOZzurOeMHVyhStXsmUAL5SLAafcf69p9wQKgUGBFVcDaEwCdohUQqWgCX4TMHmtGrVQQ3UMmyPVANJBQSVmCyBKWRIKNzu4AOwkaNofVQ0hIcEadIq5EFabxC0lKBwSqhNpYUq0uCp2DpkjwmRvCWoWRmJzm23CfYSexJvCR5miaW1d6okQMPU7qEloH6I2nF8zw5JyFmCjgAG9hY1c2xFoxkjhXyTVjzEcqBqvSQRasiZXFMH7KXiruYeztI0VGwdMtag7RKtBrU3ypI2JNvRWnAdqpqvIeC7RIeKWPPp5ENzqaZ2alRs75rJN3PpnyOV823wQ9AQSPSVvS8hbo9Kd32lu/aO08XlNbPpd7v5MfT7//b1o5/mlxM/fgM=);fillColor=none;strokeColor=#FFFFFF;" vertex="1" parent="tZTZFI5KvzDKFGGIXcyF-1">
          <mxGeometry x="-1020" y="-90" width="217.5" height="325" as="geometry" />
        </mxCell>
        <mxCell id="6q-CFF4XW0L_3gYF559m-15" value="" style="shape=stencil(lZVLcoMwDIZPw1ZjW36u0/QemQlpmKYhQ0gft68o4zYyRJSdMfosS/olV7i5HneXujLq2nfta/3R7PtjhU+VMc35WHdNT6sKtxVuDm1Xv3Tt7bwfvy+7wXJYvbXvwwmfI6dAqQEy6mvcMBGs+dl5Hu1PzZnZR7vGXitwYQ1gAvhVAAbQeg3gFHhcA3gL2q0BQgD0HAgQ02MgJvCGAx5Q8JA8xMIDgo9SHaaV/t2Zd0Ex8jRpB0EIImmIPAitwQl3igjIPVDegpBWzMdlewTthbqZnPRsT2JEQRi61KqcIatB8/PleNEAcns5ofTb8vtok7U+DygIhVDlCDQlfNL+yQmAA8VDwAUAy4FhFwHD29ktTJhJlb3PPh8BhYyCzT7/6SEupHUSdFzwQELgrRPlgUGFSxxIsrZJmoprKZk8BucBW8aQ5BgG5fBuTrK8cdL+SS4cTXpbBC1niRq0vFLKgp8HHCQuvru5OU/QDdQCQYu/5/fQnE7j633/v3yuaWt86nH7DQ==);fillColor=none;strokeColor=#FFFFFF;" vertex="1" parent="tZTZFI5KvzDKFGGIXcyF-1">
          <mxGeometry x="-680" y="146.25" width="198.75" height="118.75" as="geometry" />
        </mxCell>
        <mxCell id="6q-CFF4XW0L_3gYF559m-16" value="" style="shape=stencil(lZXLcsIwDEW/Jts7suWHvKb0P5ghlEwpYYC+/r5OM6F1IILsHOdItqUrqeLFabs61JWl0/nYvtafzfq8rfipsrbZb+tjc86ripcVLzbtsX45tu/7df99WHVkt3prPzoPX70dgagzsvTdb3AEpd+d557fNXuVF4ifwTuCDXN4RqI5fADP8e8Jac57fUBS3xul4INFMtO8gQ8ln+DdNG/BruBjgNhpnmG44MXBKPfh4bYDn/KLeJp3CKnkA0jhPVws+TS86CYfYH3BG7qk5DGDJAgyh3eIc/yLgBT/cQjHJWECowgoQsoEhHyiEtAcvlJw3oGV+xuDaMuKsYOL2wYOUkqOswulZIwgliHKqvWKRrOIbHmlfKaPikhprKKcY03UAjsKkhqj3EOk5Bms+PdXVWDUppJ7gqcRz0qAIg3HDzwhKE0uxnGX0GtG7Fh0d/ireOp8MnBz/CceK+gOH4aZ9Vh8UkSyI160EqCrMaAn7IaBRSiqPi/+ZvKm2e36kf7//3iG561+/vPyBw==);fillColor=none;strokeColor=#FFFFFF;" vertex="1" parent="tZTZFI5KvzDKFGGIXcyF-1">
          <mxGeometry x="-355" y="160" width="80" height="94.375" as="geometry" />
        </mxCell>
        <mxCell id="6q-CFF4XW0L_3gYF559m-17" value="" style="shape=stencil(lVbZUsMwDPyavO5Ils9njv9ghkIzlJYp5fp7FEIhdoKYvDmx1qPVrmR3cvG8vXnadI6eT8fDw+atvz1tO7nsnOv3282xP+mqk6tOLu4Ox8398fCyvx2/n26GyGH1eHgdTngfcQSiAeToY/zhA3L4+nM9xu/6/SQ+IMQ18azbsgYgAlkF8AwOqygI4ipADIirUkpxoUq+/A3IEb4BeKT0N6AIUsNB6+YMQIJvhCYkI6VS4HMFkATOhtI085I4k3XJKDVrF5HYAERIzVr9G4ycCiOmCsAe3htCqE6uAmTEaCidQE2VUAzdYoarraQqGLKF3HbDT5GXmyGh1Pk7sJGPZFAdH5ENvq6cj5sUlAwFHCPXBdIKscGAY9vOOhGCQYEdQuNsf/b6sikgdUZB+9uIT3ClLlFAMuJ1t5YseYhBYBafGcWaLm0+OUEMzZhaT2tbiNEEPJt3xcMZLlWTNcNl6FSj84Vazjqfvu+JZV/TLKV8dvpyURnka0BBNEhHQqkBk4G2rANBeB0itzfPf4jsUWgN7/nEU4B5MfjzNTCRgq0hPLvR9Yjar7r4fW/c9bvd+FyZ7rfvE/01vm3k6hM=);fillColor=none;strokeColor=#FFFFFF;" vertex="1" parent="tZTZFI5KvzDKFGGIXcyF-1">
          <mxGeometry x="-110" y="140.625" width="120" height="173.125" as="geometry" />
        </mxCell>
        <mxCell id="6q-CFF4XW0L_3gYF559m-18" value="" style="shape=stencil(lVfLctswDPwaXTEgwec5Tf8jM3FqT10747ivvy9cjZQQlLflTYaxIgXsLsFJHt72T6+7yfPb9XL+uvt5eL7uJ/k0eX847XeXw1WfJnmc5OHlfNl9uZy/n57n369Pt8zb07fzj9sbfs04FynXG8rz7zniM/n8N/J5BhwPJwyo5OsIQBJJGgGEQG4MUMi5EUAMVP0IIHlyY4BCNYwAciA/BijEAgESG0BhEgaAQCG3K1RcJVnatAISFUQNpmoAjjxoXKGcbRtKuZ+fKJa2zwJrFEgMkfT9oERKAkNtTzXez2cKodWOUAD7Z2Ju8rWJDrzfkfi2xZRBOQOVNl11BqRfKbUEcri7HUOZMpCx1sJHky+gOOLIBZPPoFmi7HUD7w+ZijPf64AiY1dOD500MUUZKH8Kdv9pWXA7P1Nt2V+pAPKkSrmtpwrag4apWNkQIi+R/wTcFIEATK79BCVJAVtSlw2mB9iCUiLfNkGrBLvQmZzykMGWYl0s7YNJRMC7nkciWMaVotlSgJ0OaxFXQFy4si2dQqk1Ij3DM9CC7ljaskqGTq1Oxa21q1wZsFuJkIoFZDS4dPQOqwC3AR01gqOEVgjEZgW/0HEb4CkbA5aF8PcAvlgAHCvENk5nqYwO/bR84gqIUKK+07T6piBAtoem8jeBKimZjYAiNtb3Nq2AuJBlW3HdORuxVcZi6Z3W0WHbNUbnQbXK2q6QsfPlrqz/mAeLs8ORRtB5UqI9rzTi0Qqda2gEHSiVbZU0UoHzVd8dcVhANVgTqJEYAfLy9wpIVNGQVOwUUyse5Lmf8thOMvrwfoN7ORyP8wXw4//2xqeh+bYoj38A);fillColor=none;strokeColor=#FFFFFF;" vertex="1" parent="tZTZFI5KvzDKFGGIXcyF-1">
          <mxGeometry x="-1592.5" y="-1080" width="142.5" height="165" as="geometry" />
        </mxCell>
        <mxCell id="6q-CFF4XW0L_3gYF559m-19" value="" style="shape=stencil(rVbLjsIwDPyaXq0kzstnlv0PJMpSLQsI2Nffb1DVQpIyqNLeSvEk9ng8dcOL83Z1bBujzpfT4b397taXbcMvjTHdftueukt6anjZ8GJzOLVvp8Pnft3/Pq6ukdenj8PX9YSfHucUKXVFGfXbvxlfvPbxu27/JD6aOfGaJMyJZ4qz4i3JrHw8BXy+M1l8JI/ON6RiXq8i6wHAkg45wBBrAAhkJAckitxjgNdDAiPADUlOAxx5zgEeiiKoIeM7AGIpuJLVBEBti4pMcUOigQHAEsdZN0RytgSgPogmH0pavQAAU3A5wELtiaNY9IGHJKcBgWwxbAY2TiLZomisVhGyOa0RsqpVNW8RZvQ/gJkpaQ3nYQphIU1TCIHimEAkZ9JgrCcQ/EQeVfOshs6R5CG5c7gn8qgE6ARSK2kCcjPzYRjcR1On8yFKXoIA0ZfuF3HRtdVEnFIwZdGCp85zaTWCa3BMOjeCRDSqwfJgjiNA4A08fkJuRoAXAeNK9ckThQfSeauTvJD9JSsSW1aNPN+TcXNorVlleL4mlytJFCygXh2wldVG5mA+9flY2Wrozzg6Qhr5Hqmc/4C/iNXqkyYj3wLSw20R3XS7Xb/H3v9fLq7pVb/08vIP);fillColor=none;strokeColor=#FFFFFF;" vertex="1" parent="tZTZFI5KvzDKFGGIXcyF-1">
          <mxGeometry x="-1470" y="-995" width="120" height="203.125" as="geometry" />
        </mxCell>
        <mxCell id="6q-CFF4XW0L_3gYF559m-20" value="" style="shape=stencil(lZbbbsMgDIafJrcW+IDheof3mLR2jda1U9ed3n5EUbuZrE5zR6m/gPl/Gzq6eds8vK46DG/Hw/559dk/Hjcd3XaI/W6zOvTHOurorqOb9f6wejrs33eP4+/XhyFyGL3sP4YvfI0cMmAYKAzf40yAME7cj/HbfufGJyhefADNJj4KRL0MxAKEBkAFKQ6QIScDEEFCB1DQYgBmyOQACZQMIAmCBwgku6WkgLwE0JmkJ1vKCTC6x1osUAjiIqGLAjsrUIBkgRh8L1GBKHaJOuMcEyskq1xJIHIZEAVqkohA+TJQdSpqz5WBHWDQyfp7RrksEGzSqbjuqzvmxkzRlbrIxK7obqkK21QQy+mg/zfTr7Dnmsunorqa8Kt0uqlqMK9xFG5rqLYm9VaYHGz1vGe/rBCt/RDdksgRstUao+tXFWC2QHCVSOfueyUgGSgtAbi6E5fkwNWdtiKQTjP/twEEbZKWhXfQ3BUx6ZYzXoqhvYRm3JraoiaF4CyArTE4gDjfr7dotPF0alRXxvuNclKdVXZ2mtLk+xLdWpvkK+0roA5+3yjrfrsdnzh//2/fNHVqfA/R3Q8=);fillColor=none;strokeColor=#FFFFFF;" vertex="1" parent="tZTZFI5KvzDKFGGIXcyF-1">
          <mxGeometry x="-1294.166666666667" y="-985" width="58.54166666666629" height="72.5" as="geometry" />
        </mxCell>
        <mxCell id="6q-CFF4XW0L_3gYF559m-21" value="" style="shape=stencil(lVXRbsMgDPwaXhHgGMhz1/1HpaYLWpZUaba1fz8iVlqFienewNwZ+2ywoN2lP5w7YdRlmaf37jscl17QizAmjH03hyWuBO0F7U7T3L3N0+d4TPvzYUWuq4/pa/VwTTwllVpJRt02htcEH8JYg5MkAuAt5l030rQI3krDAD5aLBK+YSz+mC95RE2SGomHwHzJS4fgG435bwj0z5j+jZUe0bMB82Ww+1lj8TCoD4P6sMf6x9brm7sr4+v9r43kzQX1Auh8fCe4+gt4PMBMcPc7/ySQ24bk6zXjQiRff2S2SLqtd5ErcmjrSfv8yWaCldZVZFXlx/tPIUrGk+mXEhePMXIKw5Cm0PP5duxEUxpZtP8B);fillColor=none;strokeColor=#FFFFFF;" vertex="1" parent="tZTZFI5KvzDKFGGIXcyF-1">
          <mxGeometry x="-1225" y="-965" width="10" height="100" as="geometry" />
        </mxCell>
        <mxCell id="6q-CFF4XW0L_3gYF559m-22" value="" style="shape=stencil(lVXLcsIwDPyaXHdk2fHjTOl/MEMomVLCBOjj7+tMxhSHVMQ3R9m1pfVKrvTqvN+cmorpfOm79+ar3V72lX6pmNvjvunbS1xVel3p1a7rm7e+ux634/dpMyCH1Uf3OezwPfIIRAOJ6WcMGA81Rl5H/KE9SvjawNcFeMtgX4L30CX7O4IPJXiH4XMx3hfm7x20KcAHhlEleAsuuS9Ft9DCAzyclvDO5HiDIBQc5VO5QBYkCKphfX5hJkVm8TV8jo+GIyF/DwolDaBU2i4RtIESElIGLq84asaCpVV0fF6CIiihhKhRnafEKTCPD8liCS9bQls4mycEdv/jTRSE8yEBssKVcXLMwoKtekjIwggn2JCG1E0hAxLuwPmp7bSCFQi+Bk98RKiFRg4Ekxf9xHjhUdUaTiK4pPrCVoidPvHRk+EbAjg/4Ulz3g2fGyPASc3wyPDxxRGEnWFErbXU0jMMearOMaZjMi7+Ht1deziMb/b9/+kjHUPjA6/Xvw==);fillColor=none;strokeColor=#FFFFFF;" vertex="1" parent="tZTZFI5KvzDKFGGIXcyF-1">
          <mxGeometry x="-1150" y="-998.75" width="85" height="49.375" as="geometry" />
        </mxCell>
        <mxCell id="6q-CFF4XW0L_3gYF559m-23" value="" style="shape=stencil(lZTdDoMgDIWfhtsGWgt4vbn3MNFNMqeLur+3n4aLidlYuCv0fLSnSRG0G5vyWguU4zT05/rhqqkRtBeIrmvqwU1zJKgQtDv2Q30a+ltX+fO1XJRLdOnvywtPz0mQcoFQvjYXBy9vXbeSM1ibIFcSOE/Qz2llUvSc1j5lwDpBnxFQ6FchcGw+CKgC4NPiV0ArMGFHZKIVdA6WA4DjHoyGLJypjnuwCBRWMHEPVm892LgHm4MJp6Rk3ESOoDmNyLZz+ksYkDqNsMCURKzyv5E5+Kzr0bWt3/Z1frve85X/Gqh4Aw==);fillColor=none;strokeColor=#FFFFFF;" vertex="1" parent="tZTZFI5KvzDKFGGIXcyF-1">
          <mxGeometry x="-905" y="-1030" width="85" height="5" as="geometry" />
        </mxCell>
        <mxCell id="6q-CFF4XW0L_3gYF559m-24" value="" style="shape=stencil(nVddcxoxDPw1vGpsy5bt5zT9H5kJKUwpZAj9+vfVlfEViWNJ+gZ32jtZ2l3pVvzwtnl6Xa9SeDsdD1/XP7fPp82KP61S2u436+P2pL9W/Ljih5fDcf3lePi+fz7/f32aIqdf3w4/pif8OuNKoSoTKoXf5yuBQvh74fM5frfd2/hYPhKfqMQPxOdKKbv4zCCeqXYTH4nj7XhuxNXEM8yHE0UbXyjI7Xi93Wx9KuV+Oz52yrY+MWAAU7EF0isNZNSoNBuvGSVQUar2+dqBChLSArl4bUm7HR+oWMIloQw6MPNlju+UQIcDRVtQbSF+frfPZ5VERecNbOM7VcQgYkvQnCmCembqlnBZz1tuxwuJrWfJJKD+V3yQO4TThtkCiVAEB45p8GuWQBycXQZkT4kqVFBKQt32oEUKWGXNvqGpjIEIpq45QBt9XAZUL8seIUBZGaxRdNUxSInryHgGCAVA1Kx9cClVqoBJuQ3rnAEdmp0yLTYPaECbRaXi3Q7PA8ne3/UVAgaCdGJL196oAT3Uq1ZrmQqoq5LTkakX/IY+BDkDsAUom8WdIREDbjS+akQgAZJr2be69eHjy4AyNH8hiABarQCxPta0bujQ4o1er8CUhJJzgQIlpwC2gtAyZDQ6ZdyeATwI/F5Aov6xNyQ43RYA8d4ZiuvDPPFuARxbFcC4D06iSvg7h+7RA5Dft0qRPSAAE1BAtoeuan1IQM2vtbWMuboMULm4mZUgQAWZbJWkUQVn0PkhNiXBi57Oj2gHRGkkgEvqQm4VKHgZngaOTUnXdQbOp06araYzNjL1arc76NhrqErd+xJnSsC9FVDsGRgLSAHVcilhtk4z0HZalwOkuIsZeLETox16CaEzCO1Yiwi4My0g8pDVuxE8ttn/RuiPfx+vL9vd7vzte3nff+zqpfOHMj/+AQ==);fillColor=none;strokeColor=#FFFFFF;" vertex="1" parent="tZTZFI5KvzDKFGGIXcyF-1">
          <mxGeometry x="-1622.1666666666665" y="-1040.333333333333" width="369.1666666666667" height="222.5" as="geometry" />
        </mxCell>
        <mxCell id="6q-CFF4XW0L_3gYF559m-25" value="" style="shape=stencil(hVXLcsIwDPyaXHdsy5btc0v/g5nSkikFBujr76s0dVoFEDfH2bUl7crq6O64Xu5XXXDH02H3svroH0/rju67EPrtenXoT7LqaNHR3dPusHo+7N62j+P3fjkgh9Xr7n044XPkMSOGgRXc17jj4NzPxsOI3/Tbf/jkUJLCezBfx1MBVYVnVAMfCtzs/AQOBiHC6QskIm8Q5DwiTago/jqhILPCU0VORspgnUGs4Hod75B1POwQjPMngRo+O3jjfI+o488FwZAggorCFwbF6/iKqAWoHpWMeBh5RmCEbEgsv3VEtbYYLyuQm8cmEznb1oNEUV9R4I2k2YO8JkREw0U5tKJPZZXCGTcU31w2EQLY8qnYUpcpRyRDiDp11uS8hGC0jpT9V6dGSKlJc1lqd2bWmBEMIaTsSQtxo9uk7EW7iagdcZngkLRyQexi3FAiWGc9tLiRg/SX10lLzyaLIFXSN/gCNpQ7d5/P7Z29/GzTvIWkC72RdJQm1d6Qd9Myk8jkZzlEVMOuFM4myQ2Cn4+SM4Is/gbdU7/ZjHPy///5YJStcajS4hs=);fillColor=none;strokeColor=#FFFFFF;" vertex="1" parent="tZTZFI5KvzDKFGGIXcyF-1">
          <mxGeometry x="-1157.583333333333" y="-1013.6666666666665" width="57.083333333333336" height="67.08333333333334" as="geometry" />
        </mxCell>
        <mxCell id="6q-CFF4XW0L_3gYF559m-26" value="" style="shape=stencil(lVvLchw3DPwaXVnDN3l2kv9wleVYFcdy2c7r79OMMqOdhraxe7O1gmYIgOhuAPuQ333/9P7r40Pavv/49vzb419PH358esg/PaT09OXT47enH/jXQ/75Ib/7+Pzt8ddvz398+fDy/6/v12+uf/3+/Of6C3+/2MUSRl5Wafvn5SephNT++8kvLwafn75cGtR7DUZI5R4DfFzb2aCGrgxG2OgJPaR43SDnkObZYIY4hMEIYzsZ5BhivW5QSsj9bJBDKcJghpbOBji0MKh4AhnADVkYtNDPZyhb2DZpUM9nKDE09Uo5zHMcSg5NxAGHpkiXtv/kbYPMXqpbKFMEroVJBiUU4SUkQieDEZp4QkqhnL3UUpgiNWIL2/kJTWdrjBy4rpNv7s8/fr+EKAIdtz2sh4HOPRSNfK4BvYUsnBRnKBsb/O/nt71aOQyOQUYYxj2vlGfI2z2HLih8nd3aRRhqDInioGsAUnPQoXV21xpqPKdSDVNd6RzG2UsNsRcXDternr2EZxZ1peGl8ys5NxRFKFMN0GfIhSNd0h7Ka/BAN3TFXsQh5b2QXpTWrCFuNn5C68Kgh5r4DE2k9wJRqsUtJFXHIt84xCEqEG3sJadSAtAiPUEDkI10iyGrXBr7x4eBZg5ArI1qscYTlGoqrajFVaQGPu6RDVTxbkeqXVzRKlIDb5wMnqjUqHMnR0ccdPKhLsUz+6m6tiJwkwyc1NhMaiBZFMRNxsSKyIiqAT5m3kjV4rQznQsfqRKw8e83fd0iMx+n1PewndNo6DoMxCUHDZ13OHE9e2imEFXMwDLORW86eIg3Ptfh6aTR2F1y4xMQUyKgU2cF8piYz9Bhg0EiEqDZ3spjYj7bDtpvH7rveXlkksOJ4/7xkao9ZKVNwBro/msvIfkmYYlWP8juRIjb9vt3Dd4IfBD7quCt7cl8nCHuiuvaE0iFOrwEZ6DCXY+ac81LRAKaVj9goJO4Vd79diMDhcFUAFp3JnWjASCfypKjTSwD9fhhDY3ioKmSla2voH0NrfLZrU6px40j6Y2X3EQcQL1I3Dt4CDYY78olUKVq4qAoKwA0U9XQN84ibtcXKB814laBNThbh24flKO4XxhMEQfbPnBAEU6spPk0qr/q5sMAt1zkEtBg3CWlRzFu1fJnmFxyIj1MOw2kuCqDZp6gq8ZIfGiHdlsvORwXTuSeSd/F9dsGGxfjrtXM0sFnUOyagSKXxl33AWhgKZxK72a6LEiWqZ9QiM1oFEVcN2JkcdfK17xEWmPm0JU46aGdX2nq6r0CRzRUs5memDrAoIsbh7jOjV9JNX5gwMxYpwbOQE9Yd1C8EtxKuTQ0E6i2Y+egaGZQdPQGCBs1TiFMq2qRT2aVjpQGxpF+aDq9bad1paPScGNHg9tBkQ30BQKV7neVGWigSHHQN271t+/CaUSaNJAjOFBmujn0EG7FnY6GayjRhDem2uoQ3VXuCYG2vYF8rQh04nwap5tpj1WN069c/kbBAU1F5MTpp5XMZN1RWfYCebKssCxzXslOHjyVtXF7zKHS/Y32suKIgzHUudH2hbzRRjGlWPcck2EaQ1OThGJPXQ0tv3NknegAVu48w5pOozUzVXdAd8n5u3iA7cwO3Te1bRBfPcTzobvuX5VoxLEmoXBrIsDScmNJJqN1VRyQ3qTiPAMgpimU6pVSNt1lZyxQmI85xGFN0s9xcGgu0pvEgHOBEIdC6a352BoC33WBVlk0JFTByWoLnhHO6VSuQYbhlJJIW+btUPVhGsAOrA+uS8OZhfT9jW/VJ+YMQwtLeImoyXDmOZ3nm0PfabAlGgB5delo9x5xcGC97pOPi0hL5l24LnltckMRpzvPoR5c3JzNjsFumrrtjVATXfJ0X2YG54wfRuIGljPgGNAvVGd0fxZXmJZNum4Zw+00r2iakF24/cbeDNxOwNt0dcUheBSnIQVup3aR029d1ZrGCZrzDbNMVXWxhLblFRtH4hcuZY6Xuhl+eQ2pZGBRr9gs1CRZ5nQSKw9dhh7r9rnXoRtL2TAd3amV4sIDauZo5oq/t5GBRuqZuOvgvBIMKL0dhMDfo3Ls8JkFUedXcihWN5tIRfMZMDBajsq6zuBC0kwxOSPCygQoOpKj8vxBl6XUmMNpPMHHNd/x+7FzB8HZfjFtR0cmTr7OUbMrPJ9YbnT20xqfODnTwchbS8lZc2qsNpLu2EEATco7RzE1TiNnR3UtgzV+gpzHm+ZV1nFYUNP50Apy7cDSSQ07wHfuAg5NW3zJmdIaMe08AXom3nWGPBnTs7MFW3nzKmtMR1wbDfDd9CapW7Q8sV0Qb+haWCY6ixR2Suu0vEtipt71mtOaNJ+f4LXtE+eSNxI1K9hO+wpgFs0MVbVaWzIbMJqM2ZW57kjdyFNapyG9VrPMmoOKtPWSt4SQzdaCPgOKAMlEr/s7WAkULWfsgMZZ8MTf4yc4u/OT9yKKHmPZZWHn0HWyXK8agaysdNr23eC0s/bTzcyo6l7R4ptmOVLqJZSZu9ZNxqHmb0w+PIEWKeDWIuIwqvnSg1YzVnwjWYaScJ0nOk657+ZbEk7ytb4f8VbabYbfXnpPpg7OGVY3yuzNKUBB5tAA39mFR+bwkMnlS2ygU8MuPFaH89naqkHR7mA69wFu5cVzZy3UTI18g+x0KPCP12/IfXz6/PnlC3aXn/M36vCjl2/j5Z//BQ==);fillColor=none;strokeColor=#FFFFFF;" vertex="1" parent="tZTZFI5KvzDKFGGIXcyF-1">
          <mxGeometry x="-1691.75" y="-1077.833333333333" width="665.8333333333334" height="127.08333333333334" as="geometry" />
        </mxCell>
        <mxCell id="6q-CFF4XW0L_3gYF559m-27" value="" style="shape=stencil(lVXZbsIwEPyavI68Xl/7TNv/QCKUqJSgQK+/r6OIlg3Erd8ce8aZnT3c8Oq0Wx/bxprTeehf2o9uc941/NBY2x127dCd86rhx4ZX235on4f+7bCZvo/rETmuXvv38YbPiUfGwJiRZs3XtPWz8TQR9t3hiiABIhX4JEg1+JjAXIMnEFXgfdZjZ/gQlvEuIgWFtwi8jOcA0vd72ML943FS+CwwLuMpwGh/yIMKgrKfXusnGF8IAKzzZWMxYAPR9cOuGMBNvTmLWDDIwGn9vpwwgtd+5oxbqog3eERZxmf/NT7yJSP3Gwai8xUFoaCHHEJUhOThCz/IDrGuODHFCHIIwWmCQ3QFixhO95hEcCHHzsybRhJCqumyq8F0v48dKNUx5KL5v4xcCbPa+JMhiL6KcTu/bhl58Tu/t91+P43/6/P5vM9b01vBj98=);fillColor=none;strokeColor=#FFFFFF;" vertex="1" parent="tZTZFI5KvzDKFGGIXcyF-1">
          <mxGeometry x="-884.25" y="-1010.333333333333" width="184.58333333333334" height="63.333333333333336" as="geometry" />
        </mxCell>
        <mxCell id="6q-CFF4XW0L_3gYF559m-28" value="" style="shape=stencil(lZXbbsIwDIafpre/EjtxkmvG3gOJMqoxigo7vf1SVWWEDk+5S1N/8elP3PDqvN+c2obM+TL0r+1nt73sG35qiLrjvh26S141vG54teuH9mXo34/b6fu0GS3H1Vv/MZ7wNXFkwGakyHxPOwZm2nie7A/dUbVnJHpsbwMcF/ZW4IICCOjOgUViBfCIVAIR5BTAzefNgNdzXnoQgteACG8LIDiQKFV1CLEAIs8+/wSYEF0BpFwl+xhwFiGVQIBRQvI5xdKDNXqZxMHGKiIsCvtPUNFDQgkQxD8GEiOUvY6CoHhIWTtl66KBVTzc5HhtNsMrgk0JtgRE1N4lBymTEAujeIj50kmp8ABWkggLwXqvZi1hruIVYEhU5ORBZauzwJJyS11ubKoB8jNhXA1AFrbKg2VYrgEEMdQUicCppgsGUgrJC0R5NRZKzbKISvyL88WAUkX8+UkIhbDz4ncS7brDYRpkt//vJ1femqYer38A);fillColor=none;strokeColor=#FFFFFF;" vertex="1" parent="tZTZFI5KvzDKFGGIXcyF-1">
          <mxGeometry x="-625.7777777777774" y="-990.333333333333" width="46.52777777777753" height="56.66666666666667" as="geometry" />
        </mxCell>
      </root>
    </mxGraphModel>
  </diagram>
</mxfile>
